<?xml version="1.0"?><svg width="744.09448819" height="1052.3622047" xmlns="http://www.w3.org/2000/svg">
 <metadata id="metadata3750">image/svg+xml</metadata>

 <g>
  <title>Layer 1</title>
  <g externalResourcesRequired="false" id="svg_1">
   <ellipse id="svg_20" transform="matrix(0.455291 -1.18549 1.19562 0.451433 -241.203 631.845)" ry="49.110224" rx="93.404904" cy="362.714156" cx="312.749666" stroke-linecap="null" stroke-linejoin="null" stroke-dasharray="null" stroke-width="1.5" stroke="#000000" fill="#ffffff"/>
   <ellipse transform="matrix(0.454966 1.18561 -1.19574 0.451111 745.688 -283.353)" ry="49.110224" rx="93.404904" id="svg_19" cy="361.914156" cx="458.749666" stroke-linecap="null" stroke-linejoin="null" stroke-dasharray="null" stroke-width="1.5" stroke="#000000" fill="#ffffff"/>
   <path d="m487.700104,276.726593c0,34.329163 -27.392303,62.1586 -61.18222,62.1586c-33.79007,0 -61.182373,-27.829437 -61.182373,-62.1586c0,-34.329346 27.392303,-62.158707 61.182373,-62.158707c33.789917,0 61.18222,27.829361 61.18222,62.158707z" id="path3757" fill="#000000"/>
   <path d="m512.674561,421.322571c0,77.414795 -38.287781,140.171814 -85.518158,140.171814c-47.230316,0 -85.518188,-62.757019 -85.518188,-140.171814c0,-51.910889 16.224701,-93.620605 41.155334,-115.468689c12.248566,-10.734009 26.598633,-16.673828 42.158356,-16.673828c55.090973,0 87.722656,54.727692 87.722656,132.142517z" id="path3769" stroke-miterlimit="4" stroke-width="2.007949" stroke="#000000" fill="#ffff00"/>
   <path d="m357.269867,338.996643c7.217407,-17.691925 133.821472,-19.487915 139.395905,-0.853516l12.254517,40.966064c-55.777496,-34.226807 -110.163513,-28.527557 -163.90506,0.853485l12.254639,-40.966034z" id="rect3775" fill="#000000"/>
   <path d="m341.085358,416.318695c72.113342,-34.142883 127.417206,-30.286652 172.534637,0.944336l-4.5177,36.827637c-45.667511,-37.137726 -125.125793,-24.705505 -166.663788,-2.046234l-1.353149,-35.725739z" id="rect3779" fill="#000000"/>
   <path d="m418.152344,559.932373l25.893188,0l-11.257843,39.15387l-14.635345,-39.15387z" id="rect3781" fill="#000000"/>
   <path d="m346.128357,471.630005c52.186798,-21.337677 107.516693,-24.949677 161.841553,3.820618l-19.396423,45.214661c-38.859009,-34.152466 -85.669861,-32.534454 -122.325684,1.257202l-20.119446,-50.29248z" id="rect4299" fill="#000000"/>
   <path d="m387.811707,542.04126c25.912903,-8.400513 52.587433,-10.56781 80.714233,-0.851135l-13.31366,11.065247c-17.323395,9.616638 -35.382568,12.460022 -54.918976,1.702332l-12.481598,-11.916443z" id="rect4302" stroke-miterlimit="4" stroke-width="2.2" stroke="#000000" fill="#000000"/>
   <path d="m512.267883,136.170593c9.746033,-4.75238 15.66687,7.363556 5.257324,10.766953c-114.825714,37.541382 -73.585358,97.742584 -57.612518,104.500687c3.95694,1.674194 -5.606049,11.986328 -7.723694,8.522858c-38.821625,-63.489212 -10.418121,-89.414124 60.078888,-123.790497z" id="rect4312" fill="#000000"/>
   <path id="path4315" d="m333.75592,151.790268c-10.456116,-4.063583 -16.190887,7.202164 -5.091705,10.011246c122.431335,30.986343 81.491455,87.310928 64.953613,93.967926c-4.096985,1.649139 6.39502,10.80777 8.482269,7.574829c38.257965,-59.26355 7.288544,-82.160065 -68.344177,-111.554001z" fill="#000000"/>
  </g>
 </g>
</svg>