<?xml version="1.0" encoding="UTF-8" standalone="no"?>
<svg
   xmlns:dc="http://purl.org/dc/elements/1.1/"
   xmlns:cc="http://creativecommons.org/ns#"
   xmlns:rdf="http://www.w3.org/1999/02/22-rdf-syntax-ns#"
   xmlns:svg="http://www.w3.org/2000/svg"
   xmlns="http://www.w3.org/2000/svg"
   xmlns:sodipodi="http://sodipodi.sourceforge.net/DTD/sodipodi-0.dtd"
   xmlns:inkscape="http://www.inkscape.org/namespaces/inkscape"
   viewBox="0 0 504.00 216.00"
   id="svg4628"
   version="1.1"
   inkscape:version="0.91 r13725"
   sodipodi:docname="Networkstat.svg"
   inkscape:export-filename="/Users/ben/Documents/BetaNetwork/Figures/Networkstat.png"
   inkscape:export-xdpi="400"
   inkscape:export-ydpi="400">
  <metadata
     id="metadata4841">
    <rdf:RDF>
      <cc:Work
         rdf:about="">
        <dc:format>image/svg+xml</dc:format>
        <dc:type
           rdf:resource="http://purl.org/dc/dcmitype/StillImage" />
      </cc:Work>
    </rdf:RDF>
  </metadata>
  <sodipodi:namedview
     pagecolor="#ffffff"
     bordercolor="#666666"
     borderopacity="1"
     objecttolerance="10"
     gridtolerance="10"
     guidetolerance="10"
     inkscape:pageopacity="0"
     inkscape:pageshadow="2"
     inkscape:window-width="1330"
     inkscape:window-height="763"
     id="namedview4839"
     showgrid="false"
     inkscape:zoom="1.5080545"
     inkscape:cx="252.22503"
     inkscape:cy="106.09465"
     inkscape:window-x="0"
     inkscape:window-y="0"
     inkscape:window-maximized="0"
     inkscape:current-layer="svg4628" />
  <defs
     id="defs4630">
    <style
       type="text/css"
       id="style4632"><![CDATA[
    line, polyline, polygon, path, rect, circle {
      fill: none;
      stroke: #000000;
      stroke-linecap: round;
      stroke-linejoin: round;
      stroke-miterlimit: 10.00;
    }
  ]]></style>
  </defs>
  <rect
     width="100%"
     height="100%"
     style="stroke: none; fill: #FFFFFF;"
     id="rect4634" />
  <rect
     x="0.00"
     y="0.00"
     width="504.00"
     height="216.00"
     style="stroke-width: 1.07; stroke: #FFFFFF; fill: #FFFFFF;"
     id="rect4636" />
  <defs
     id="defs4638">
    <clipPath
       id="cpMzYuMDh8MjY0LjU2fDE4NS44MHwyMi43NA==">
      <rect
         x="36.08"
         y="22.74"
         width="228.48"
         height="163.06"
         id="rect4641" />
    </clipPath>
  </defs>
  <rect
     x="36.08"
     y="22.74"
     width="228.48"
     height="163.06"
     style="stroke-width: 1.07; stroke: none; fill: #FFFFFF;"
     clip-path="url(#cpMzYuMDh8MjY0LjU2fDE4NS44MHwyMi43NA==)"
     id="rect4643" />
  <polyline
     points="36.08,150.53 264.56,150.53 "
     style="stroke-width: 0.53; stroke: #EBEBEB; stroke-linecap: butt;"
     clip-path="url(#cpMzYuMDh8MjY0LjU2fDE4NS44MHwyMi43NA==)"
     id="polyline4645" />
  <polyline
     points="36.08,94.82 264.56,94.82 "
     style="stroke-width: 0.53; stroke: #EBEBEB; stroke-linecap: butt;"
     clip-path="url(#cpMzYuMDh8MjY0LjU2fDE4NS44MHwyMi43NA==)"
     id="polyline4647" />
  <polyline
     points="36.08,39.10 264.56,39.10 "
     style="stroke-width: 0.53; stroke: #EBEBEB; stroke-linecap: butt;"
     clip-path="url(#cpMzYuMDh8MjY0LjU2fDE4NS44MHwyMi43NA==)"
     id="polyline4649" />
  <polyline
     points="46.81,185.80 46.81,22.74 "
     style="stroke-width: 0.53; stroke: #EBEBEB; stroke-linecap: butt;"
     clip-path="url(#cpMzYuMDh8MjY0LjU2fDE4NS44MHwyMi43NA==)"
     id="polyline4651" />
  <polyline
     points="106.05,185.80 106.05,22.74 "
     style="stroke-width: 0.53; stroke: #EBEBEB; stroke-linecap: butt;"
     clip-path="url(#cpMzYuMDh8MjY0LjU2fDE4NS44MHwyMi43NA==)"
     id="polyline4653" />
  <polyline
     points="165.30,185.80 165.30,22.74 "
     style="stroke-width: 0.53; stroke: #EBEBEB; stroke-linecap: butt;"
     clip-path="url(#cpMzYuMDh8MjY0LjU2fDE4NS44MHwyMi43NA==)"
     id="polyline4655" />
  <polyline
     points="224.55,185.80 224.55,22.74 "
     style="stroke-width: 0.53; stroke: #EBEBEB; stroke-linecap: butt;"
     clip-path="url(#cpMzYuMDh8MjY0LjU2fDE4NS44MHwyMi43NA==)"
     id="polyline4657" />
  <polyline
     points="36.08,178.38 264.56,178.38 "
     style="stroke-width: 1.07; stroke: #EBEBEB; stroke-linecap: butt;"
     clip-path="url(#cpMzYuMDh8MjY0LjU2fDE4NS44MHwyMi43NA==)"
     id="polyline4659" />
  <polyline
     points="36.08,122.67 264.56,122.67 "
     style="stroke-width: 1.07; stroke: #EBEBEB; stroke-linecap: butt;"
     clip-path="url(#cpMzYuMDh8MjY0LjU2fDE4NS44MHwyMi43NA==)"
     id="polyline4661" />
  <polyline
     points="36.08,66.96 264.56,66.96 "
     style="stroke-width: 1.07; stroke: #EBEBEB; stroke-linecap: butt;"
     clip-path="url(#cpMzYuMDh8MjY0LjU2fDE4NS44MHwyMi43NA==)"
     id="polyline4663" />
  <polyline
     points="76.43,185.80 76.43,22.74 "
     style="stroke-width: 1.07; stroke: #EBEBEB; stroke-linecap: butt;"
     clip-path="url(#cpMzYuMDh8MjY0LjU2fDE4NS44MHwyMi43NA==)"
     id="polyline4665" />
  <polyline
     points="135.68,185.80 135.68,22.74 "
     style="stroke-width: 1.07; stroke: #EBEBEB; stroke-linecap: butt;"
     clip-path="url(#cpMzYuMDh8MjY0LjU2fDE4NS44MHwyMi43NA==)"
     id="polyline4667" />
  <polyline
     points="194.93,185.80 194.93,22.74 "
     style="stroke-width: 1.07; stroke: #EBEBEB; stroke-linecap: butt;"
     clip-path="url(#cpMzYuMDh8MjY0LjU2fDE4NS44MHwyMi43NA==)"
     id="polyline4669" />
  <polyline
     points="254.17,185.80 254.17,22.74 "
     style="stroke-width: 1.07; stroke: #EBEBEB; stroke-linecap: butt;"
     clip-path="url(#cpMzYuMDh8MjY0LjU2fDE4NS44MHwyMi43NA==)"
     id="polyline4671" />
  <polygon
     points="46.46,178.38 46.87,178.38 47.28,178.38 47.68,178.38 48.09,178.38 48.50,178.38 48.90,178.38 49.31,178.38 49.72,178.38 50.12,178.38 50.53,178.38 50.93,178.38 51.34,178.38 51.75,178.38 52.15,178.38 52.56,178.38 52.97,178.38 53.37,178.38 53.78,178.38 54.19,178.38 54.59,178.38 55.00,178.38 55.41,178.38 55.81,178.38 56.22,178.38 56.63,178.38 57.03,178.38 57.44,178.38 57.85,178.38 58.25,178.38 58.66,178.38 59.06,178.38 59.47,178.38 59.88,178.38 60.28,178.38 60.69,178.38 61.10,178.38 61.50,178.38 61.91,178.38 62.32,178.38 62.72,178.38 63.13,178.38 63.54,178.38 63.94,178.38 64.35,178.38 64.76,178.38 65.16,178.38 65.57,178.38 65.97,178.38 66.38,178.38 66.79,178.38 67.19,178.38 67.60,178.38 68.01,178.38 68.41,178.38 68.82,178.38 69.23,178.38 69.63,178.38 70.04,178.38 70.45,178.38 70.85,178.38 71.26,178.38 71.67,178.38 72.07,178.38 72.48,178.38 72.88,178.38 73.29,178.38 73.70,178.38 74.10,178.38 74.51,178.38 74.92,178.38 75.32,178.38 75.73,178.38 76.14,178.38 76.54,178.38 76.95,178.38 77.36,178.38 77.76,178.38 78.17,178.38 78.58,178.38 78.98,178.38 79.39,178.38 79.79,178.38 80.20,178.38 80.61,178.38 81.01,178.38 81.42,178.38 81.83,178.38 82.23,178.38 82.64,178.38 83.05,178.38 83.45,178.38 83.86,178.38 84.27,178.38 84.67,178.38 85.08,178.38 85.49,178.38 85.89,178.38 86.30,178.38 86.70,178.38 87.11,178.38 87.52,178.38 87.92,178.38 88.33,178.38 88.74,178.38 89.14,178.38 89.55,178.38 89.96,178.38 90.36,178.38 90.77,178.38 91.18,178.38 91.58,178.38 91.99,178.38 92.40,178.38 92.80,178.38 93.21,178.38 93.62,178.38 94.02,178.38 94.43,178.38 94.83,178.38 95.24,178.38 95.65,178.38 96.05,178.38 96.46,178.38 96.87,178.38 97.27,178.38 97.68,178.38 98.09,178.38 98.49,178.38 98.90,178.38 99.31,178.38 99.71,178.38 100.12,178.38 100.53,178.37 100.93,178.37 101.34,178.37 101.74,178.36 102.15,178.36 102.56,178.35 102.96,178.34 103.37,178.33 103.78,178.31 104.18,178.30 104.59,178.27 105.00,178.25 105.40,178.22 105.81,178.18 106.22,178.13 106.62,178.08 107.03,178.02 107.44,177.95 107.84,177.86 108.25,177.76 108.65,177.65 109.06,177.52 109.47,177.38 109.87,177.21 110.28,177.02 110.69,176.81 111.09,176.57 111.50,176.31 111.91,176.03 112.31,175.71 112.72,175.37 113.13,175.00 113.53,174.60 113.94,174.17 114.35,173.72 114.75,173.23 115.16,172.73 115.56,172.20 115.97,171.65 116.38,171.08 116.78,170.49 117.19,169.89 117.60,169.28 118.00,168.66 118.41,168.04 118.82,167.42 119.22,166.80 119.63,166.18 120.04,165.57 120.44,164.98 120.85,164.39 121.26,163.83 121.66,163.27 122.07,162.74 122.48,162.22 122.88,161.72 123.29,161.23 123.69,160.76 124.10,160.31 124.51,159.87 124.91,159.43 125.32,159.01 125.73,158.58 126.13,158.16 126.54,157.74 126.95,157.30 127.35,156.86 127.76,156.40 128.17,155.92 128.57,155.42 128.98,154.89 129.39,154.33 129.79,153.74 130.20,153.10 130.60,152.41 131.01,151.68 131.42,150.90 131.82,150.06 132.23,149.16 132.64,148.19 133.04,147.15 133.45,146.04 133.86,144.86 134.26,143.61 134.67,142.27 135.08,140.85 135.48,139.34 135.89,137.75 136.30,136.09 136.70,134.33 137.11,132.47 137.51,130.53 137.92,128.51 138.33,126.40 138.73,124.22 139.14,121.95 139.55,119.59 139.95,117.16 140.36,114.67 140.77,112.11 141.17,109.49 141.58,106.81 141.99,104.08 142.39,101.31 142.80,98.51 143.21,95.67 143.61,92.81 144.02,89.94 144.42,87.07 144.83,84.20 145.24,81.34 145.64,78.50 146.05,75.70 146.46,72.94 146.86,70.23 147.27,67.59 147.68,65.00 148.08,62.50 148.49,60.11 148.90,57.81 149.30,55.62 149.71,53.54 150.12,51.57 150.52,49.74 150.93,48.06 151.34,46.51 151.74,45.08 152.15,43.79 152.55,42.63 152.96,41.62 153.37,40.73 153.77,39.96 154.18,39.28 154.59,38.70 154.99,38.22 155.40,37.81 155.81,37.46 156.21,37.15 156.62,36.88 157.03,36.62 157.43,36.37 157.84,36.11 158.25,35.84 158.65,35.54 159.06,35.21 159.46,34.85 159.87,34.45 160.28,34.01 160.68,33.55 161.09,33.07 161.50,32.58 161.90,32.09 162.31,31.62 162.72,31.18 163.12,30.80 163.53,30.48 163.94,30.25 164.34,30.15 164.75,30.18 165.16,30.37 165.56,30.71 165.97,31.23 166.37,31.94 166.78,32.90 167.19,34.06 167.59,35.43 168.00,37.01 168.41,38.80 168.81,40.82 169.22,43.05 169.63,45.46 170.03,48.03 170.44,50.74 170.85,53.60 171.25,56.58 171.66,59.64 172.07,62.76 172.47,65.92 172.88,69.09 173.28,72.26 173.69,75.39 174.10,78.47 174.50,81.49 174.91,84.43 175.32,87.27 175.72,89.98 176.13,92.58 176.54,95.05 176.94,97.41 177.35,99.64 177.76,101.74 178.16,103.69 178.57,105.54 178.98,107.28 179.38,108.92 179.79,110.46 180.20,111.91 180.60,113.28 181.01,114.59 181.41,115.84 181.82,117.05 182.23,118.22 182.63,119.35 183.04,120.46 183.45,121.55 183.85,122.63 184.26,123.69 184.67,124.75 185.07,125.81 185.48,126.86 185.89,127.90 186.29,128.95 186.70,129.98 187.11,131.01 187.51,132.03 187.92,133.03 188.32,134.01 188.73,134.98 189.14,135.92 189.54,136.83 189.95,137.71 190.36,138.55 190.76,139.35 191.17,140.11 191.58,140.81 191.98,141.45 192.39,142.05 192.80,142.59 193.20,143.07 193.61,143.49 194.02,143.84 194.42,144.12 194.83,144.35 195.23,144.53 195.64,144.65 196.05,144.72 196.45,144.73 196.86,144.71 197.27,144.65 197.67,144.56 198.08,144.46 198.49,144.34 198.89,144.23 199.30,144.12 199.71,144.03 200.11,143.96 200.52,143.93 200.93,143.95 201.33,144.03 201.74,144.16 202.14,144.36 202.55,144.63 202.96,144.99 203.36,145.43 203.77,145.95 204.18,146.56 204.58,147.24 204.99,148.00 205.40,148.86 205.80,149.79 206.21,150.78 206.62,151.83 207.02,152.93 207.43,154.09 207.84,155.28 208.24,156.49 208.65,157.72 209.05,158.96 209.46,160.21 209.87,161.44 210.27,162.65 210.68,163.83 211.09,164.99 211.49,166.11 211.90,167.18 212.31,168.20 212.71,169.16 213.12,170.07 213.53,170.93 213.93,171.74 214.34,172.47 214.75,173.15 215.15,173.77 215.56,174.34 215.97,174.85 216.37,175.32 216.78,175.73 217.18,176.09 217.59,176.42 218.00,176.71 218.40,176.97 218.81,177.19 219.22,177.37 219.62,177.54 220.03,177.68 220.44,177.80 220.84,177.90 221.25,177.99 221.66,178.06 222.06,178.12 222.47,178.17 222.88,178.21 223.28,178.25 223.69,178.27 224.09,178.30 224.50,178.31 224.91,178.33 225.31,178.34 225.72,178.35 226.13,178.36 226.53,178.36 226.94,178.37 227.35,178.37 227.75,178.38 228.16,178.38 228.57,178.38 228.97,178.38 229.38,178.38 229.79,178.38 230.19,178.38 230.60,178.38 231.00,178.38 231.41,178.38 231.82,178.38 232.22,178.38 232.63,178.38 233.04,178.38 233.44,178.38 233.85,178.38 234.26,178.38 234.66,178.38 235.07,178.38 235.48,178.38 235.88,178.38 236.29,178.38 236.70,178.38 237.10,178.38 237.51,178.38 237.91,178.38 238.32,178.38 238.73,178.38 239.13,178.38 239.54,178.38 239.95,178.38 240.35,178.38 240.76,178.38 241.17,178.38 241.57,178.38 241.98,178.38 242.39,178.38 242.79,178.38 243.20,178.38 243.61,178.38 244.01,178.38 244.42,178.38 244.83,178.38 245.23,178.38 245.64,178.38 246.04,178.38 246.45,178.38 246.86,178.38 247.26,178.38 247.67,178.38 248.08,178.38 248.48,178.38 248.89,178.38 249.30,178.38 249.70,178.38 250.11,178.38 250.52,178.38 250.92,178.38 251.33,178.38 251.74,178.38 252.14,178.38 252.55,178.38 252.95,178.38 253.36,178.38 253.77,178.38 254.17,178.38 254.17,178.38 253.77,178.38 253.36,178.38 252.95,178.38 252.55,178.38 252.14,178.38 251.74,178.38 251.33,178.38 250.92,178.38 250.52,178.38 250.11,178.38 249.70,178.38 249.30,178.38 248.89,178.38 248.48,178.38 248.08,178.38 247.67,178.38 247.26,178.38 246.86,178.38 246.45,178.38 246.04,178.38 245.64,178.38 245.23,178.38 244.83,178.38 244.42,178.38 244.01,178.38 243.61,178.38 243.20,178.38 242.79,178.38 242.39,178.38 241.98,178.38 241.57,178.38 241.17,178.38 240.76,178.38 240.35,178.38 239.95,178.38 239.54,178.38 239.13,178.38 238.73,178.38 238.32,178.38 237.91,178.38 237.51,178.38 237.10,178.38 236.70,178.38 236.29,178.38 235.88,178.38 235.48,178.38 235.07,178.38 234.66,178.38 234.26,178.38 233.85,178.38 233.44,178.38 233.04,178.38 232.63,178.38 232.22,178.38 231.82,178.38 231.41,178.38 231.00,178.38 230.60,178.38 230.19,178.38 229.79,178.38 229.38,178.38 228.97,178.38 228.57,178.38 228.16,178.38 227.75,178.38 227.35,178.38 226.94,178.38 226.53,178.38 226.13,178.38 225.72,178.38 225.31,178.38 224.91,178.38 224.50,178.38 224.09,178.38 223.69,178.38 223.28,178.38 222.88,178.38 222.47,178.38 222.06,178.38 221.66,178.38 221.25,178.38 220.84,178.38 220.44,178.38 220.03,178.38 219.62,178.38 219.22,178.38 218.81,178.38 218.40,178.38 218.00,178.38 217.59,178.38 217.18,178.38 216.78,178.38 216.37,178.38 215.97,178.38 215.56,178.38 215.15,178.38 214.75,178.38 214.34,178.38 213.93,178.38 213.53,178.38 213.12,178.38 212.71,178.38 212.31,178.38 211.90,178.38 211.49,178.38 211.09,178.38 210.68,178.38 210.27,178.38 209.87,178.38 209.46,178.38 209.05,178.38 208.65,178.38 208.24,178.38 207.84,178.38 207.43,178.38 207.02,178.38 206.62,178.38 206.21,178.38 205.80,178.38 205.40,178.38 204.99,178.38 204.58,178.38 204.18,178.38 203.77,178.38 203.36,178.38 202.96,178.38 202.55,178.38 202.14,178.38 201.74,178.38 201.33,178.38 200.93,178.38 200.52,178.38 200.11,178.38 199.71,178.38 199.30,178.38 198.89,178.38 198.49,178.38 198.08,178.38 197.67,178.38 197.27,178.38 196.86,178.38 196.45,178.38 196.05,178.38 195.64,178.38 195.23,178.38 194.83,178.38 194.42,178.38 194.02,178.38 193.61,178.38 193.20,178.38 192.80,178.38 192.39,178.38 191.98,178.38 191.58,178.38 191.17,178.38 190.76,178.38 190.36,178.38 189.95,178.38 189.54,178.38 189.14,178.38 188.73,178.38 188.32,178.38 187.92,178.38 187.51,178.38 187.11,178.38 186.70,178.38 186.29,178.38 185.89,178.38 185.48,178.38 185.07,178.38 184.67,178.38 184.26,178.38 183.85,178.38 183.45,178.38 183.04,178.38 182.63,178.38 182.23,178.38 181.82,178.38 181.41,178.38 181.01,178.38 180.60,178.38 180.20,178.38 179.79,178.38 179.38,178.38 178.98,178.38 178.57,178.38 178.16,178.38 177.76,178.38 177.35,178.38 176.94,178.38 176.54,178.38 176.13,178.38 175.72,178.38 175.32,178.38 174.91,178.38 174.50,178.38 174.10,178.38 173.69,178.38 173.28,178.38 172.88,178.38 172.47,178.38 172.07,178.38 171.66,178.38 171.25,178.38 170.85,178.38 170.44,178.38 170.03,178.38 169.63,178.38 169.22,178.38 168.81,178.38 168.41,178.38 168.00,178.38 167.59,178.38 167.19,178.38 166.78,178.38 166.37,178.38 165.97,178.38 165.56,178.38 165.16,178.38 164.75,178.38 164.34,178.38 163.94,178.38 163.53,178.38 163.12,178.38 162.72,178.38 162.31,178.38 161.90,178.38 161.50,178.38 161.09,178.38 160.68,178.38 160.28,178.38 159.87,178.38 159.46,178.38 159.06,178.38 158.65,178.38 158.25,178.38 157.84,178.38 157.43,178.38 157.03,178.38 156.62,178.38 156.21,178.38 155.81,178.38 155.40,178.38 154.99,178.38 154.59,178.38 154.18,178.38 153.77,178.38 153.37,178.38 152.96,178.38 152.55,178.38 152.15,178.38 151.74,178.38 151.34,178.38 150.93,178.38 150.52,178.38 150.12,178.38 149.71,178.38 149.30,178.38 148.90,178.38 148.49,178.38 148.08,178.38 147.68,178.38 147.27,178.38 146.86,178.38 146.46,178.38 146.05,178.38 145.64,178.38 145.24,178.38 144.83,178.38 144.42,178.38 144.02,178.38 143.61,178.38 143.21,178.38 142.80,178.38 142.39,178.38 141.99,178.38 141.58,178.38 141.17,178.38 140.77,178.38 140.36,178.38 139.95,178.38 139.55,178.38 139.14,178.38 138.73,178.38 138.33,178.38 137.92,178.38 137.51,178.38 137.11,178.38 136.70,178.38 136.30,178.38 135.89,178.38 135.48,178.38 135.08,178.38 134.67,178.38 134.26,178.38 133.86,178.38 133.45,178.38 133.04,178.38 132.64,178.38 132.23,178.38 131.82,178.38 131.42,178.38 131.01,178.38 130.60,178.38 130.20,178.38 129.79,178.38 129.39,178.38 128.98,178.38 128.57,178.38 128.17,178.38 127.76,178.38 127.35,178.38 126.95,178.38 126.54,178.38 126.13,178.38 125.73,178.38 125.32,178.38 124.91,178.38 124.51,178.38 124.10,178.38 123.69,178.38 123.29,178.38 122.88,178.38 122.48,178.38 122.07,178.38 121.66,178.38 121.26,178.38 120.85,178.38 120.44,178.38 120.04,178.38 119.63,178.38 119.22,178.38 118.82,178.38 118.41,178.38 118.00,178.38 117.60,178.38 117.19,178.38 116.78,178.38 116.38,178.38 115.97,178.38 115.56,178.38 115.16,178.38 114.75,178.38 114.35,178.38 113.94,178.38 113.53,178.38 113.13,178.38 112.72,178.38 112.31,178.38 111.91,178.38 111.50,178.38 111.09,178.38 110.69,178.38 110.28,178.38 109.87,178.38 109.47,178.38 109.06,178.38 108.65,178.38 108.25,178.38 107.84,178.38 107.44,178.38 107.03,178.38 106.62,178.38 106.22,178.38 105.81,178.38 105.40,178.38 105.00,178.38 104.59,178.38 104.18,178.38 103.78,178.38 103.37,178.38 102.96,178.38 102.56,178.38 102.15,178.38 101.74,178.38 101.34,178.38 100.93,178.38 100.53,178.38 100.12,178.38 99.71,178.38 99.31,178.38 98.90,178.38 98.49,178.38 98.09,178.38 97.68,178.38 97.27,178.38 96.87,178.38 96.46,178.38 96.05,178.38 95.65,178.38 95.24,178.38 94.83,178.38 94.43,178.38 94.02,178.38 93.62,178.38 93.21,178.38 92.80,178.38 92.40,178.38 91.99,178.38 91.58,178.38 91.18,178.38 90.77,178.38 90.36,178.38 89.96,178.38 89.55,178.38 89.14,178.38 88.74,178.38 88.33,178.38 87.92,178.38 87.52,178.38 87.11,178.38 86.70,178.38 86.30,178.38 85.89,178.38 85.49,178.38 85.08,178.38 84.67,178.38 84.27,178.38 83.86,178.38 83.45,178.38 83.05,178.38 82.64,178.38 82.23,178.38 81.83,178.38 81.42,178.38 81.01,178.38 80.61,178.38 80.20,178.38 79.79,178.38 79.39,178.38 78.98,178.38 78.58,178.38 78.17,178.38 77.76,178.38 77.36,178.38 76.95,178.38 76.54,178.38 76.14,178.38 75.73,178.38 75.32,178.38 74.92,178.38 74.51,178.38 74.10,178.38 73.70,178.38 73.29,178.38 72.88,178.38 72.48,178.38 72.07,178.38 71.67,178.38 71.26,178.38 70.85,178.38 70.45,178.38 70.04,178.38 69.63,178.38 69.23,178.38 68.82,178.38 68.41,178.38 68.01,178.38 67.60,178.38 67.19,178.38 66.79,178.38 66.38,178.38 65.97,178.38 65.57,178.38 65.16,178.38 64.76,178.38 64.35,178.38 63.94,178.38 63.54,178.38 63.13,178.38 62.72,178.38 62.32,178.38 61.91,178.38 61.50,178.38 61.10,178.38 60.69,178.38 60.28,178.38 59.88,178.38 59.47,178.38 59.06,178.38 58.66,178.38 58.25,178.38 57.85,178.38 57.44,178.38 57.03,178.38 56.63,178.38 56.22,178.38 55.81,178.38 55.41,178.38 55.00,178.38 54.59,178.38 54.19,178.38 53.78,178.38 53.37,178.38 52.97,178.38 52.56,178.38 52.15,178.38 51.75,178.38 51.34,178.38 50.93,178.38 50.53,178.38 50.12,178.38 49.72,178.38 49.31,178.38 48.90,178.38 48.50,178.38 48.09,178.38 47.68,178.38 47.28,178.38 46.87,178.38 46.46,178.38 "
     style="stroke-width: 1.07; fill: #FF0000; fill-opacity: 0.20;"
     clip-path="url(#cpMzYuMDh8MjY0LjU2fDE4NS44MHwyMi43NA==)"
     id="polygon4673" />
  <polygon
     points="46.46,178.38 46.87,178.38 47.28,178.38 47.68,178.38 48.09,178.38 48.50,178.38 48.90,178.38 49.31,178.38 49.72,178.38 50.12,178.38 50.53,178.38 50.93,178.38 51.34,178.38 51.75,178.38 52.15,178.38 52.56,178.38 52.97,178.38 53.37,178.38 53.78,178.38 54.19,178.38 54.59,178.38 55.00,178.38 55.41,178.38 55.81,178.38 56.22,178.38 56.63,178.38 57.03,178.38 57.44,178.38 57.85,178.38 58.25,178.38 58.66,178.38 59.06,178.38 59.47,178.38 59.88,178.38 60.28,178.38 60.69,178.38 61.10,178.38 61.50,178.38 61.91,178.38 62.32,178.38 62.72,178.38 63.13,178.38 63.54,178.38 63.94,178.38 64.35,178.38 64.76,178.38 65.16,178.38 65.57,178.38 65.97,178.38 66.38,178.38 66.79,178.38 67.19,178.38 67.60,178.38 68.01,178.38 68.41,178.38 68.82,178.38 69.23,178.38 69.63,178.38 70.04,178.38 70.45,178.38 70.85,178.38 71.26,178.38 71.67,178.38 72.07,178.38 72.48,178.38 72.88,178.38 73.29,178.38 73.70,178.38 74.10,178.38 74.51,178.38 74.92,178.38 75.32,178.38 75.73,178.38 76.14,178.38 76.54,178.38 76.95,178.38 77.36,178.38 77.76,178.38 78.17,178.38 78.58,178.38 78.98,178.38 79.39,178.38 79.79,178.38 80.20,178.38 80.61,178.38 81.01,178.38 81.42,178.38 81.83,178.38 82.23,178.38 82.64,178.38 83.05,178.38 83.45,178.38 83.86,178.38 84.27,178.38 84.67,178.38 85.08,178.38 85.49,178.38 85.89,178.38 86.30,178.38 86.70,178.38 87.11,178.38 87.52,178.38 87.92,178.38 88.33,178.38 88.74,178.38 89.14,178.38 89.55,178.38 89.96,178.38 90.36,178.38 90.77,178.38 91.18,178.38 91.58,178.38 91.99,178.38 92.40,178.38 92.80,178.38 93.21,178.38 93.62,178.38 94.02,178.38 94.43,178.38 94.83,178.38 95.24,178.38 95.65,178.38 96.05,178.38 96.46,178.38 96.87,178.38 97.27,178.38 97.68,178.38 98.09,178.38 98.49,178.38 98.90,178.38 99.31,178.38 99.71,178.38 100.12,178.38 100.53,178.38 100.93,178.38 101.34,178.38 101.74,178.38 102.15,178.38 102.56,178.38 102.96,178.38 103.37,178.38 103.78,178.38 104.18,178.38 104.59,178.38 105.00,178.38 105.40,178.38 105.81,178.38 106.22,178.38 106.62,178.38 107.03,178.38 107.44,178.38 107.84,178.38 108.25,178.38 108.65,178.38 109.06,178.38 109.47,178.38 109.87,178.38 110.28,178.38 110.69,178.38 111.09,178.38 111.50,178.38 111.91,178.38 112.31,178.38 112.72,178.38 113.13,178.38 113.53,178.38 113.94,178.38 114.35,178.38 114.75,178.38 115.16,178.38 115.56,178.38 115.97,178.38 116.38,178.38 116.78,178.38 117.19,178.38 117.60,178.38 118.00,178.38 118.41,178.38 118.82,178.38 119.22,178.38 119.63,178.38 120.04,178.38 120.44,178.38 120.85,178.38 121.26,178.38 121.66,178.38 122.07,178.38 122.48,178.38 122.88,178.38 123.29,178.38 123.69,178.38 124.10,178.38 124.51,178.38 124.91,178.38 125.32,178.38 125.73,178.38 126.13,178.38 126.54,178.38 126.95,178.38 127.35,178.38 127.76,178.37 128.17,178.37 128.57,178.37 128.98,178.37 129.39,178.36 129.79,178.36 130.20,178.35 130.60,178.34 131.01,178.33 131.42,178.32 131.82,178.31 132.23,178.30 132.64,178.28 133.04,178.26 133.45,178.23 133.86,178.21 134.26,178.17 134.67,178.14 135.08,178.09 135.48,178.04 135.89,177.99 136.30,177.92 136.70,177.85 137.11,177.76 137.51,177.67 137.92,177.56 138.33,177.44 138.73,177.30 139.14,177.15 139.55,176.98 139.95,176.80 140.36,176.60 140.77,176.37 141.17,176.12 141.58,175.85 141.99,175.56 142.39,175.24 142.80,174.90 143.21,174.52 143.61,174.12 144.02,173.69 144.42,173.24 144.83,172.75 145.24,172.23 145.64,171.69 146.05,171.11 146.46,170.51 146.86,169.88 147.27,169.22 147.68,168.53 148.08,167.82 148.49,167.08 148.90,166.32 149.30,165.54 149.71,164.73 150.12,163.91 150.52,163.07 150.93,162.22 151.34,161.35 151.74,160.47 152.15,159.58 152.55,158.67 152.96,157.76 153.37,156.85 153.77,155.92 154.18,155.00 154.59,154.06 154.99,153.12 155.40,152.18 155.81,151.23 156.21,150.28 156.62,149.31 157.03,148.34 157.43,147.36 157.84,146.37 158.25,145.36 158.65,144.34 159.06,143.30 159.46,142.24 159.87,141.16 160.28,140.05 160.68,138.91 161.09,137.74 161.50,136.53 161.90,135.29 162.31,134.01 162.72,132.68 163.12,131.31 163.53,129.90 163.94,128.44 164.34,126.92 164.75,125.35 165.16,123.73 165.56,122.07 165.97,120.35 166.37,118.57 166.78,116.74 167.19,114.86 167.59,112.94 168.00,110.96 168.41,108.94 168.81,106.87 169.22,104.77 169.63,102.64 170.03,100.47 170.44,98.27 170.85,96.04 171.25,93.80 171.66,91.55 172.07,89.29 172.47,87.03 172.88,84.77 173.28,82.52 173.69,80.28 174.10,78.08 174.50,75.90 174.91,73.76 175.32,71.67 175.72,69.62 176.13,67.65 176.54,65.74 176.94,63.90 177.35,62.13 177.76,60.45 178.16,58.89 178.57,57.42 178.98,56.04 179.38,54.77 179.79,53.62 180.20,52.61 180.60,51.71 181.01,50.92 181.41,50.25 181.82,49.73 182.23,49.33 182.63,49.05 183.04,48.89 183.45,48.84 183.85,48.93 184.26,49.12 184.67,49.41 185.07,49.80 185.48,50.27 185.89,50.84 186.29,51.48 186.70,52.19 187.11,52.94 187.51,53.75 187.92,54.60 188.32,55.47 188.73,56.36 189.14,57.26 189.54,58.16 189.95,59.05 190.36,59.92 190.76,60.77 191.17,61.59 191.58,62.37 191.98,63.10 192.39,63.79 192.80,64.43 193.20,65.02 193.61,65.55 194.02,66.02 194.42,66.44 194.83,66.81 195.23,67.14 195.64,67.40 196.05,67.63 196.45,67.82 196.86,67.98 197.27,68.12 197.67,68.23 198.08,68.34 198.49,68.44 198.89,68.55 199.30,68.67 199.71,68.82 200.11,69.00 200.52,69.21 200.93,69.47 201.33,69.78 201.74,70.17 202.14,70.62 202.55,71.13 202.96,71.73 203.36,72.42 203.77,73.21 204.18,74.07 204.58,75.03 204.99,76.08 205.40,77.25 205.80,78.50 206.21,79.84 206.62,81.27 207.02,82.78 207.43,84.40 207.84,86.08 208.24,87.84 208.65,89.65 209.05,91.53 209.46,93.47 209.87,95.44 210.27,97.45 210.68,99.49 211.09,101.54 211.49,103.61 211.90,105.67 212.31,107.73 212.71,109.77 213.12,111.79 213.53,113.77 213.93,115.71 214.34,117.61 214.75,119.47 215.15,121.25 215.56,122.97 215.97,124.63 216.37,126.22 216.78,127.74 217.18,129.16 217.59,130.52 218.00,131.80 218.40,133.01 218.81,134.14 219.22,135.18 219.62,136.15 220.03,137.05 220.44,137.88 220.84,138.64 221.25,139.34 221.66,139.98 222.06,140.57 222.47,141.11 222.88,141.60 223.28,142.06 223.69,142.48 224.09,142.87 224.50,143.24 224.91,143.58 225.31,143.92 225.72,144.24 226.13,144.56 226.53,144.89 226.94,145.21 227.35,145.55 227.75,145.89 228.16,146.25 228.57,146.62 228.97,147.02 229.38,147.44 229.79,147.88 230.19,148.34 230.60,148.83 231.00,149.35 231.41,149.89 231.82,150.45 232.22,151.04 232.63,151.65 233.04,152.29 233.44,152.95 233.85,153.62 234.26,154.31 234.66,155.02 235.07,155.74 235.48,156.48 235.88,157.22 236.29,157.96 236.70,158.71 237.10,159.46 237.51,160.21 237.91,160.95 238.32,161.69 238.73,162.42 239.13,163.13 239.54,163.83 239.95,164.52 240.35,165.19 240.76,165.83 241.17,166.46 241.57,167.06 241.98,167.64 242.39,168.19 242.79,168.71 243.20,169.20 243.61,169.67 244.01,170.11 244.42,170.51 244.83,170.88 245.23,171.23 245.64,171.55 246.04,171.84 246.45,172.10 246.86,172.34 247.26,172.55 247.67,172.74 248.08,172.91 248.48,173.06 248.89,173.18 249.30,173.30 249.70,173.40 250.11,173.48 250.52,173.56 250.92,173.62 251.33,173.68 251.74,173.74 252.14,173.79 252.55,173.85 252.95,173.90 253.36,173.96 253.77,174.02 254.17,174.08 254.17,178.38 253.77,178.38 253.36,178.38 252.95,178.38 252.55,178.38 252.14,178.38 251.74,178.38 251.33,178.38 250.92,178.38 250.52,178.38 250.11,178.38 249.70,178.38 249.30,178.38 248.89,178.38 248.48,178.38 248.08,178.38 247.67,178.38 247.26,178.38 246.86,178.38 246.45,178.38 246.04,178.38 245.64,178.38 245.23,178.38 244.83,178.38 244.42,178.38 244.01,178.38 243.61,178.38 243.20,178.38 242.79,178.38 242.39,178.38 241.98,178.38 241.57,178.38 241.17,178.38 240.76,178.38 240.35,178.38 239.95,178.38 239.54,178.38 239.13,178.38 238.73,178.38 238.32,178.38 237.91,178.38 237.51,178.38 237.10,178.38 236.70,178.38 236.29,178.38 235.88,178.38 235.48,178.38 235.07,178.38 234.66,178.38 234.26,178.38 233.85,178.38 233.44,178.38 233.04,178.38 232.63,178.38 232.22,178.38 231.82,178.38 231.41,178.38 231.00,178.38 230.60,178.38 230.19,178.38 229.79,178.38 229.38,178.38 228.97,178.38 228.57,178.38 228.16,178.38 227.75,178.38 227.35,178.38 226.94,178.38 226.53,178.38 226.13,178.38 225.72,178.38 225.31,178.38 224.91,178.38 224.50,178.38 224.09,178.38 223.69,178.38 223.28,178.38 222.88,178.38 222.47,178.38 222.06,178.38 221.66,178.38 221.25,178.38 220.84,178.38 220.44,178.38 220.03,178.38 219.62,178.38 219.22,178.38 218.81,178.38 218.40,178.38 218.00,178.38 217.59,178.38 217.18,178.38 216.78,178.38 216.37,178.38 215.97,178.38 215.56,178.38 215.15,178.38 214.75,178.38 214.34,178.38 213.93,178.38 213.53,178.38 213.12,178.38 212.71,178.38 212.31,178.38 211.90,178.38 211.49,178.38 211.09,178.38 210.68,178.38 210.27,178.38 209.87,178.38 209.46,178.38 209.05,178.38 208.65,178.38 208.24,178.38 207.84,178.38 207.43,178.38 207.02,178.38 206.62,178.38 206.21,178.38 205.80,178.38 205.40,178.38 204.99,178.38 204.58,178.38 204.18,178.38 203.77,178.38 203.36,178.38 202.96,178.38 202.55,178.38 202.14,178.38 201.74,178.38 201.33,178.38 200.93,178.38 200.52,178.38 200.11,178.38 199.71,178.38 199.30,178.38 198.89,178.38 198.49,178.38 198.08,178.38 197.67,178.38 197.27,178.38 196.86,178.38 196.45,178.38 196.05,178.38 195.64,178.38 195.23,178.38 194.83,178.38 194.42,178.38 194.02,178.38 193.61,178.38 193.20,178.38 192.80,178.38 192.39,178.38 191.98,178.38 191.58,178.38 191.17,178.38 190.76,178.38 190.36,178.38 189.95,178.38 189.54,178.38 189.14,178.38 188.73,178.38 188.32,178.38 187.92,178.38 187.51,178.38 187.11,178.38 186.70,178.38 186.29,178.38 185.89,178.38 185.48,178.38 185.07,178.38 184.67,178.38 184.26,178.38 183.85,178.38 183.45,178.38 183.04,178.38 182.63,178.38 182.23,178.38 181.82,178.38 181.41,178.38 181.01,178.38 180.60,178.38 180.20,178.38 179.79,178.38 179.38,178.38 178.98,178.38 178.57,178.38 178.16,178.38 177.76,178.38 177.35,178.38 176.94,178.38 176.54,178.38 176.13,178.38 175.72,178.38 175.32,178.38 174.91,178.38 174.50,178.38 174.10,178.38 173.69,178.38 173.28,178.38 172.88,178.38 172.47,178.38 172.07,178.38 171.66,178.38 171.25,178.38 170.85,178.38 170.44,178.38 170.03,178.38 169.63,178.38 169.22,178.38 168.81,178.38 168.41,178.38 168.00,178.38 167.59,178.38 167.19,178.38 166.78,178.38 166.37,178.38 165.97,178.38 165.56,178.38 165.16,178.38 164.75,178.38 164.34,178.38 163.94,178.38 163.53,178.38 163.12,178.38 162.72,178.38 162.31,178.38 161.90,178.38 161.50,178.38 161.09,178.38 160.68,178.38 160.28,178.38 159.87,178.38 159.46,178.38 159.06,178.38 158.65,178.38 158.25,178.38 157.84,178.38 157.43,178.38 157.03,178.38 156.62,178.38 156.21,178.38 155.81,178.38 155.40,178.38 154.99,178.38 154.59,178.38 154.18,178.38 153.77,178.38 153.37,178.38 152.96,178.38 152.55,178.38 152.15,178.38 151.74,178.38 151.34,178.38 150.93,178.38 150.52,178.38 150.12,178.38 149.71,178.38 149.30,178.38 148.90,178.38 148.49,178.38 148.08,178.38 147.68,178.38 147.27,178.38 146.86,178.38 146.46,178.38 146.05,178.38 145.64,178.38 145.24,178.38 144.83,178.38 144.42,178.38 144.02,178.38 143.61,178.38 143.21,178.38 142.80,178.38 142.39,178.38 141.99,178.38 141.58,178.38 141.17,178.38 140.77,178.38 140.36,178.38 139.95,178.38 139.55,178.38 139.14,178.38 138.73,178.38 138.33,178.38 137.92,178.38 137.51,178.38 137.11,178.38 136.70,178.38 136.30,178.38 135.89,178.38 135.48,178.38 135.08,178.38 134.67,178.38 134.26,178.38 133.86,178.38 133.45,178.38 133.04,178.38 132.64,178.38 132.23,178.38 131.82,178.38 131.42,178.38 131.01,178.38 130.60,178.38 130.20,178.38 129.79,178.38 129.39,178.38 128.98,178.38 128.57,178.38 128.17,178.38 127.76,178.38 127.35,178.38 126.95,178.38 126.54,178.38 126.13,178.38 125.73,178.38 125.32,178.38 124.91,178.38 124.51,178.38 124.10,178.38 123.69,178.38 123.29,178.38 122.88,178.38 122.48,178.38 122.07,178.38 121.66,178.38 121.26,178.38 120.85,178.38 120.44,178.38 120.04,178.38 119.63,178.38 119.22,178.38 118.82,178.38 118.41,178.38 118.00,178.38 117.60,178.38 117.19,178.38 116.78,178.38 116.38,178.38 115.97,178.38 115.56,178.38 115.16,178.38 114.75,178.38 114.35,178.38 113.94,178.38 113.53,178.38 113.13,178.38 112.72,178.38 112.31,178.38 111.91,178.38 111.50,178.38 111.09,178.38 110.69,178.38 110.28,178.38 109.87,178.38 109.47,178.38 109.06,178.38 108.65,178.38 108.25,178.38 107.84,178.38 107.44,178.38 107.03,178.38 106.62,178.38 106.22,178.38 105.81,178.38 105.40,178.38 105.00,178.38 104.59,178.38 104.18,178.38 103.78,178.38 103.37,178.38 102.96,178.38 102.56,178.38 102.15,178.38 101.74,178.38 101.34,178.38 100.93,178.38 100.53,178.38 100.12,178.38 99.71,178.38 99.31,178.38 98.90,178.38 98.49,178.38 98.09,178.38 97.68,178.38 97.27,178.38 96.87,178.38 96.46,178.38 96.05,178.38 95.65,178.38 95.24,178.38 94.83,178.38 94.43,178.38 94.02,178.38 93.62,178.38 93.21,178.38 92.80,178.38 92.40,178.38 91.99,178.38 91.58,178.38 91.18,178.38 90.77,178.38 90.36,178.38 89.96,178.38 89.55,178.38 89.14,178.38 88.74,178.38 88.33,178.38 87.92,178.38 87.52,178.38 87.11,178.38 86.70,178.38 86.30,178.38 85.89,178.38 85.49,178.38 85.08,178.38 84.67,178.38 84.27,178.38 83.86,178.38 83.45,178.38 83.05,178.38 82.64,178.38 82.23,178.38 81.83,178.38 81.42,178.38 81.01,178.38 80.61,178.38 80.20,178.38 79.79,178.38 79.39,178.38 78.98,178.38 78.58,178.38 78.17,178.38 77.76,178.38 77.36,178.38 76.95,178.38 76.54,178.38 76.14,178.38 75.73,178.38 75.32,178.38 74.92,178.38 74.51,178.38 74.10,178.38 73.70,178.38 73.29,178.38 72.88,178.38 72.48,178.38 72.07,178.38 71.67,178.38 71.26,178.38 70.85,178.38 70.45,178.38 70.04,178.38 69.63,178.38 69.23,178.38 68.82,178.38 68.41,178.38 68.01,178.38 67.60,178.38 67.19,178.38 66.79,178.38 66.38,178.38 65.97,178.38 65.57,178.38 65.16,178.38 64.76,178.38 64.35,178.38 63.94,178.38 63.54,178.38 63.13,178.38 62.72,178.38 62.32,178.38 61.91,178.38 61.50,178.38 61.10,178.38 60.69,178.38 60.28,178.38 59.88,178.38 59.47,178.38 59.06,178.38 58.66,178.38 58.25,178.38 57.85,178.38 57.44,178.38 57.03,178.38 56.63,178.38 56.22,178.38 55.81,178.38 55.41,178.38 55.00,178.38 54.59,178.38 54.19,178.38 53.78,178.38 53.37,178.38 52.97,178.38 52.56,178.38 52.15,178.38 51.75,178.38 51.34,178.38 50.93,178.38 50.53,178.38 50.12,178.38 49.72,178.38 49.31,178.38 48.90,178.38 48.50,178.38 48.09,178.38 47.68,178.38 47.28,178.38 46.87,178.38 46.46,178.38 "
     style="stroke-width: 1.07; fill: #000000; fill-opacity: 0.20;"
     clip-path="url(#cpMzYuMDh8MjY0LjU2fDE4NS44MHwyMi43NA==)"
     id="polygon4675" />
  <rect
     x="36.08"
     y="22.74"
     width="228.48"
     height="163.06"
     style="stroke-width: 1.07; stroke: #333333;"
     clip-path="url(#cpMzYuMDh8MjY0LjU2fDE4NS44MHwyMi43NA==)"
     id="rect4677" />
  <defs
     id="defs4679">
    <clipPath
       id="cpMC4wMHw1MDQuMDB8MjE2LjAwfDAuMDA=">
      <rect
         x="0.00"
         y="0.00"
         width="504.00"
         height="216.00"
         id="rect4682" />
    </clipPath>
  </defs>
  <defs
     id="defs4684">
    <clipPath
       id="cpMjcwLjA0fDQ5OC41MnwxODUuODB8MjIuNzQ=">
      <rect
         x="270.04"
         y="22.74"
         width="228.48"
         height="163.06"
         id="rect4687" />
    </clipPath>
  </defs>
  <rect
     x="270.04"
     y="22.74"
     width="228.48"
     height="163.06"
     style="stroke-width: 1.07; stroke: none; fill: #FFFFFF;"
     clip-path="url(#cpMjcwLjA0fDQ5OC41MnwxODUuODB8MjIuNzQ=)"
     id="rect4689" />
  <polyline
     points="270.04,150.53 498.52,150.53 "
     style="stroke-width: 0.53; stroke: #EBEBEB; stroke-linecap: butt;"
     clip-path="url(#cpMjcwLjA0fDQ5OC41MnwxODUuODB8MjIuNzQ=)"
     id="polyline4691" />
  <polyline
     points="270.04,94.82 498.52,94.82 "
     style="stroke-width: 0.53; stroke: #EBEBEB; stroke-linecap: butt;"
     clip-path="url(#cpMjcwLjA0fDQ5OC41MnwxODUuODB8MjIuNzQ=)"
     id="polyline4693" />
  <polyline
     points="270.04,39.10 498.52,39.10 "
     style="stroke-width: 0.53; stroke: #EBEBEB; stroke-linecap: butt;"
     clip-path="url(#cpMjcwLjA0fDQ5OC41MnwxODUuODB8MjIuNzQ=)"
     id="polyline4695" />
  <polyline
     points="280.77,185.80 280.77,22.74 "
     style="stroke-width: 0.53; stroke: #EBEBEB; stroke-linecap: butt;"
     clip-path="url(#cpMjcwLjA0fDQ5OC41MnwxODUuODB8MjIuNzQ=)"
     id="polyline4697" />
  <polyline
     points="340.02,185.80 340.02,22.74 "
     style="stroke-width: 0.53; stroke: #EBEBEB; stroke-linecap: butt;"
     clip-path="url(#cpMjcwLjA0fDQ5OC41MnwxODUuODB8MjIuNzQ=)"
     id="polyline4699" />
  <polyline
     points="399.26,185.80 399.26,22.74 "
     style="stroke-width: 0.53; stroke: #EBEBEB; stroke-linecap: butt;"
     clip-path="url(#cpMjcwLjA0fDQ5OC41MnwxODUuODB8MjIuNzQ=)"
     id="polyline4701" />
  <polyline
     points="458.51,185.80 458.51,22.74 "
     style="stroke-width: 0.53; stroke: #EBEBEB; stroke-linecap: butt;"
     clip-path="url(#cpMjcwLjA0fDQ5OC41MnwxODUuODB8MjIuNzQ=)"
     id="polyline4703" />
  <polyline
     points="270.04,178.38 498.52,178.38 "
     style="stroke-width: 1.07; stroke: #EBEBEB; stroke-linecap: butt;"
     clip-path="url(#cpMjcwLjA0fDQ5OC41MnwxODUuODB8MjIuNzQ=)"
     id="polyline4705" />
  <polyline
     points="270.04,122.67 498.52,122.67 "
     style="stroke-width: 1.07; stroke: #EBEBEB; stroke-linecap: butt;"
     clip-path="url(#cpMjcwLjA0fDQ5OC41MnwxODUuODB8MjIuNzQ=)"
     id="polyline4707" />
  <polyline
     points="270.04,66.96 498.52,66.96 "
     style="stroke-width: 1.07; stroke: #EBEBEB; stroke-linecap: butt;"
     clip-path="url(#cpMjcwLjA0fDQ5OC41MnwxODUuODB8MjIuNzQ=)"
     id="polyline4709" />
  <polyline
     points="310.39,185.80 310.39,22.74 "
     style="stroke-width: 1.07; stroke: #EBEBEB; stroke-linecap: butt;"
     clip-path="url(#cpMjcwLjA0fDQ5OC41MnwxODUuODB8MjIuNzQ=)"
     id="polyline4711" />
  <polyline
     points="369.64,185.80 369.64,22.74 "
     style="stroke-width: 1.07; stroke: #EBEBEB; stroke-linecap: butt;"
     clip-path="url(#cpMjcwLjA0fDQ5OC41MnwxODUuODB8MjIuNzQ=)"
     id="polyline4713" />
  <polyline
     points="428.89,185.80 428.89,22.74 "
     style="stroke-width: 1.07; stroke: #EBEBEB; stroke-linecap: butt;"
     clip-path="url(#cpMjcwLjA0fDQ5OC41MnwxODUuODB8MjIuNzQ=)"
     id="polyline4715" />
  <polyline
     points="488.14,185.80 488.14,22.74 "
     style="stroke-width: 1.07; stroke: #EBEBEB; stroke-linecap: butt;"
     clip-path="url(#cpMjcwLjA0fDQ5OC41MnwxODUuODB8MjIuNzQ=)"
     id="polyline4717" />
  <polygon
     points="280.42,178.07 280.83,178.02 281.24,177.98 281.64,177.93 282.05,177.87 282.46,177.82 282.86,177.75 283.27,177.68 283.68,177.61 284.08,177.53 284.49,177.44 284.90,177.35 285.30,177.25 285.71,177.15 286.12,177.05 286.52,176.93 286.93,176.81 287.33,176.69 287.74,176.56 288.15,176.43 288.55,176.29 288.96,176.15 289.37,176.01 289.77,175.86 290.18,175.71 290.59,175.55 290.99,175.39 291.40,175.23 291.81,175.07 292.21,174.91 292.62,174.74 293.03,174.58 293.43,174.41 293.84,174.24 294.24,174.06 294.65,173.89 295.06,173.71 295.46,173.53 295.87,173.34 296.28,173.15 296.68,172.96 297.09,172.76 297.50,172.55 297.90,172.33 298.31,172.10 298.72,171.86 299.12,171.62 299.53,171.35 299.94,171.08 300.34,170.79 300.75,170.48 301.15,170.16 301.56,169.82 301.97,169.46 302.37,169.08 302.78,168.68 303.19,168.26 303.59,167.82 304.00,167.36 304.41,166.88 304.81,166.38 305.22,165.85 305.63,165.30 306.03,164.74 306.44,164.15 306.85,163.55 307.25,162.92 307.66,162.28 308.07,161.62 308.47,160.94 308.88,160.25 309.28,159.54 309.69,158.82 310.10,158.09 310.50,157.34 310.91,156.58 311.32,155.81 311.72,155.03 312.13,154.24 312.54,153.43 312.94,152.62 313.35,151.81 313.76,150.98 314.16,150.14 314.57,149.30 314.98,148.45 315.38,147.59 315.79,146.72 316.19,145.85 316.60,144.97 317.01,144.08 317.41,143.19 317.82,142.28 318.23,141.38 318.63,140.46 319.04,139.54 319.45,138.62 319.85,137.69 320.26,136.75 320.67,135.81 321.07,134.87 321.48,133.92 321.89,132.97 322.29,132.02 322.70,131.07 323.10,130.11 323.51,129.15 323.92,128.19 324.32,127.22 324.73,126.26 325.14,125.29 325.54,124.31 325.95,123.33 326.36,122.35 326.76,121.36 327.17,120.37 327.58,119.36 327.98,118.35 328.39,117.33 328.80,116.29 329.20,115.24 329.61,114.18 330.01,113.10 330.42,112.01 330.83,110.90 331.23,109.77 331.64,108.62 332.05,107.45 332.45,106.27 332.86,105.07 333.27,103.85 333.67,102.61 334.08,101.36 334.49,100.10 334.89,98.83 335.30,97.54 335.71,96.26 336.11,94.97 336.52,93.68 336.93,92.40 337.33,91.13 337.74,89.86 338.14,88.61 338.55,87.39 338.96,86.18 339.36,85.01 339.77,83.85 340.18,82.74 340.58,81.66 340.99,80.62 341.40,79.61 341.80,78.64 342.21,77.73 342.62,76.86 343.02,76.02 343.43,75.23 343.84,74.49 344.24,73.79 344.65,73.13 345.05,72.50 345.46,71.91 345.87,71.37 346.27,70.85 346.68,70.37 347.09,69.91 347.49,69.48 347.90,69.07 348.31,68.68 348.71,68.31 349.12,67.95 349.53,67.61 349.93,67.28 350.34,66.95 350.75,66.64 351.15,66.33 351.56,66.04 351.96,65.74 352.37,65.46 352.78,65.18 353.18,64.92 353.59,64.67 354.00,64.43 354.40,64.20 354.81,64.00 355.22,63.82 355.62,63.66 356.03,63.54 356.44,63.44 356.84,63.38 357.25,63.37 357.66,63.40 358.06,63.48 358.47,63.61 358.87,63.81 359.28,64.07 359.69,64.38 360.09,64.77 360.50,65.23 360.91,65.77 361.31,66.38 361.72,67.07 362.13,67.83 362.53,68.69 362.94,69.62 363.35,70.63 363.75,71.71 364.16,72.87 364.57,74.12 364.97,75.42 365.38,76.79 365.79,78.22 366.19,79.72 366.60,81.27 367.00,82.86 367.41,84.48 367.82,86.15 368.22,87.84 368.63,89.55 369.04,91.27 369.44,93.00 369.85,94.73 370.26,96.45 370.66,98.15 371.07,99.83 371.48,101.48 371.88,103.08 372.29,104.65 372.70,106.18 373.10,107.66 373.51,109.07 373.91,110.43 374.32,111.73 374.73,112.97 375.13,114.14 375.54,115.24 375.95,116.28 376.35,117.25 376.76,118.17 377.17,119.02 377.57,119.80 377.98,120.54 378.39,121.23 378.79,121.87 379.20,122.45 379.61,123.01 380.01,123.53 380.42,124.03 380.82,124.49 381.23,124.95 381.64,125.39 382.04,125.83 382.45,126.26 382.86,126.70 383.26,127.15 383.67,127.62 384.08,128.10 384.48,128.60 384.89,129.13 385.30,129.69 385.70,130.27 386.11,130.89 386.52,131.55 386.92,132.24 387.33,132.97 387.73,133.73 388.14,134.53 388.55,135.36 388.95,136.23 389.36,137.13 389.77,138.05 390.17,139.01 390.58,139.99 390.99,140.99 391.39,142.01 391.80,143.05 392.21,144.10 392.61,145.15 393.02,146.21 393.43,147.27 393.83,148.33 394.24,149.38 394.64,150.42 395.05,151.44 395.46,152.45 395.86,153.44 396.27,154.40 396.68,155.33 397.08,156.25 397.49,157.12 397.90,157.96 398.30,158.77 398.71,159.55 399.12,160.29 399.52,160.99 399.93,161.65 400.34,162.28 400.74,162.88 401.15,163.43 401.56,163.95 401.96,164.44 402.37,164.90 402.77,165.33 403.18,165.73 403.59,166.10 403.99,166.46 404.40,166.79 404.81,167.11 405.21,167.40 405.62,167.69 406.03,167.96 406.43,168.23 406.84,168.48 407.25,168.73 407.65,168.98 408.06,169.23 408.47,169.48 408.87,169.73 409.28,169.98 409.68,170.23 410.09,170.49 410.50,170.75 410.90,171.01 411.31,171.28 411.72,171.55 412.12,171.82 412.53,172.10 412.94,172.38 413.34,172.66 413.75,172.93 414.16,173.21 414.56,173.49 414.97,173.76 415.38,174.03 415.78,174.29 416.19,174.55 416.59,174.80 417.00,175.05 417.41,175.28 417.81,175.51 418.22,175.73 418.63,175.94 419.03,176.14 419.44,176.33 419.85,176.51 420.25,176.67 420.66,176.83 421.07,176.98 421.47,177.12 421.88,177.24 422.29,177.36 422.69,177.47 423.10,177.57 423.50,177.66 423.91,177.74 424.32,177.82 424.72,177.88 425.13,177.94 425.54,178.00 425.94,178.05 426.35,178.09 426.76,178.13 427.16,178.16 427.57,178.19 427.98,178.22 428.38,178.24 428.79,178.26 429.20,178.28 429.60,178.30 430.01,178.31 430.42,178.32 430.82,178.33 431.23,178.34 431.63,178.35 432.04,178.35 432.45,178.36 432.85,178.36 433.26,178.37 433.67,178.37 434.07,178.37 434.48,178.37 434.89,178.38 435.29,178.38 435.70,178.38 436.11,178.38 436.51,178.38 436.92,178.38 437.33,178.38 437.73,178.38 438.14,178.38 438.54,178.38 438.95,178.38 439.36,178.38 439.76,178.38 440.17,178.38 440.58,178.38 440.98,178.38 441.39,178.38 441.80,178.38 442.20,178.38 442.61,178.38 443.02,178.38 443.42,178.38 443.83,178.38 444.24,178.38 444.64,178.38 445.05,178.38 445.45,178.38 445.86,178.38 446.27,178.38 446.67,178.38 447.08,178.38 447.49,178.38 447.89,178.38 448.30,178.38 448.71,178.38 449.11,178.38 449.52,178.38 449.93,178.38 450.33,178.38 450.74,178.38 451.15,178.38 451.55,178.38 451.96,178.38 452.36,178.38 452.77,178.38 453.18,178.38 453.58,178.38 453.99,178.38 454.40,178.38 454.80,178.38 455.21,178.38 455.62,178.38 456.02,178.38 456.43,178.38 456.84,178.38 457.24,178.38 457.65,178.38 458.06,178.38 458.46,178.38 458.87,178.38 459.28,178.38 459.68,178.38 460.09,178.38 460.49,178.38 460.90,178.38 461.31,178.38 461.71,178.38 462.12,178.38 462.53,178.38 462.93,178.38 463.34,178.38 463.75,178.38 464.15,178.38 464.56,178.38 464.97,178.38 465.37,178.38 465.78,178.38 466.19,178.38 466.59,178.38 467.00,178.38 467.40,178.38 467.81,178.38 468.22,178.38 468.62,178.38 469.03,178.38 469.44,178.38 469.84,178.38 470.25,178.38 470.66,178.38 471.06,178.38 471.47,178.38 471.88,178.38 472.28,178.38 472.69,178.38 473.10,178.38 473.50,178.38 473.91,178.38 474.31,178.38 474.72,178.38 475.13,178.38 475.53,178.38 475.94,178.38 476.35,178.38 476.75,178.38 477.16,178.38 477.57,178.38 477.97,178.38 478.38,178.38 478.79,178.38 479.19,178.38 479.60,178.38 480.01,178.38 480.41,178.38 480.82,178.38 481.22,178.38 481.63,178.38 482.04,178.38 482.44,178.38 482.85,178.38 483.26,178.38 483.66,178.38 484.07,178.38 484.48,178.38 484.88,178.38 485.29,178.38 485.70,178.38 486.10,178.38 486.51,178.38 486.92,178.38 487.32,178.38 487.73,178.38 488.14,178.38 488.14,178.38 487.73,178.38 487.32,178.38 486.92,178.38 486.51,178.38 486.10,178.38 485.70,178.38 485.29,178.38 484.88,178.38 484.48,178.38 484.07,178.38 483.66,178.38 483.26,178.38 482.85,178.38 482.44,178.38 482.04,178.38 481.63,178.38 481.22,178.38 480.82,178.38 480.41,178.38 480.01,178.38 479.60,178.38 479.19,178.38 478.79,178.38 478.38,178.38 477.97,178.38 477.57,178.38 477.16,178.38 476.75,178.38 476.35,178.38 475.94,178.38 475.53,178.38 475.13,178.38 474.72,178.38 474.31,178.38 473.91,178.38 473.50,178.38 473.10,178.38 472.69,178.38 472.28,178.38 471.88,178.38 471.47,178.38 471.06,178.38 470.66,178.38 470.25,178.38 469.84,178.38 469.44,178.38 469.03,178.38 468.62,178.38 468.22,178.38 467.81,178.38 467.40,178.38 467.00,178.38 466.59,178.38 466.19,178.38 465.78,178.38 465.37,178.38 464.97,178.38 464.56,178.38 464.15,178.38 463.75,178.38 463.34,178.38 462.93,178.38 462.53,178.38 462.12,178.38 461.71,178.38 461.31,178.38 460.90,178.38 460.49,178.38 460.09,178.38 459.68,178.38 459.28,178.38 458.87,178.38 458.46,178.38 458.06,178.38 457.65,178.38 457.24,178.38 456.84,178.38 456.43,178.38 456.02,178.38 455.62,178.38 455.21,178.38 454.80,178.38 454.40,178.38 453.99,178.38 453.58,178.38 453.18,178.38 452.77,178.38 452.36,178.38 451.96,178.38 451.55,178.38 451.15,178.38 450.74,178.38 450.33,178.38 449.93,178.38 449.52,178.38 449.11,178.38 448.71,178.38 448.30,178.38 447.89,178.38 447.49,178.38 447.08,178.38 446.67,178.38 446.27,178.38 445.86,178.38 445.45,178.38 445.05,178.38 444.64,178.38 444.24,178.38 443.83,178.38 443.42,178.38 443.02,178.38 442.61,178.38 442.20,178.38 441.80,178.38 441.39,178.38 440.98,178.38 440.58,178.38 440.17,178.38 439.76,178.38 439.36,178.38 438.95,178.38 438.54,178.38 438.14,178.38 437.73,178.38 437.33,178.38 436.92,178.38 436.51,178.38 436.11,178.38 435.70,178.38 435.29,178.38 434.89,178.38 434.48,178.38 434.07,178.38 433.67,178.38 433.26,178.38 432.85,178.38 432.45,178.38 432.04,178.38 431.63,178.38 431.23,178.38 430.82,178.38 430.42,178.38 430.01,178.38 429.60,178.38 429.20,178.38 428.79,178.38 428.38,178.38 427.98,178.38 427.57,178.38 427.16,178.38 426.76,178.38 426.35,178.38 425.94,178.38 425.54,178.38 425.13,178.38 424.72,178.38 424.32,178.38 423.91,178.38 423.50,178.38 423.10,178.38 422.69,178.38 422.29,178.38 421.88,178.38 421.47,178.38 421.07,178.38 420.66,178.38 420.25,178.38 419.85,178.38 419.44,178.38 419.03,178.38 418.63,178.38 418.22,178.38 417.81,178.38 417.41,178.38 417.00,178.38 416.59,178.38 416.19,178.38 415.78,178.38 415.38,178.38 414.97,178.38 414.56,178.38 414.16,178.38 413.75,178.38 413.34,178.38 412.94,178.38 412.53,178.38 412.12,178.38 411.72,178.38 411.31,178.38 410.90,178.38 410.50,178.38 410.09,178.38 409.68,178.38 409.28,178.38 408.87,178.38 408.47,178.38 408.06,178.38 407.65,178.38 407.25,178.38 406.84,178.38 406.43,178.38 406.03,178.38 405.62,178.38 405.21,178.38 404.81,178.38 404.40,178.38 403.99,178.38 403.59,178.38 403.18,178.38 402.77,178.38 402.37,178.38 401.96,178.38 401.56,178.38 401.15,178.38 400.74,178.38 400.34,178.38 399.93,178.38 399.52,178.38 399.12,178.38 398.71,178.38 398.30,178.38 397.90,178.38 397.49,178.38 397.08,178.38 396.68,178.38 396.27,178.38 395.86,178.38 395.46,178.38 395.05,178.38 394.64,178.38 394.24,178.38 393.83,178.38 393.43,178.38 393.02,178.38 392.61,178.38 392.21,178.38 391.80,178.38 391.39,178.38 390.99,178.38 390.58,178.38 390.17,178.38 389.77,178.38 389.36,178.38 388.95,178.38 388.55,178.38 388.14,178.38 387.73,178.38 387.33,178.38 386.92,178.38 386.52,178.38 386.11,178.38 385.70,178.38 385.30,178.38 384.89,178.38 384.48,178.38 384.08,178.38 383.67,178.38 383.26,178.38 382.86,178.38 382.45,178.38 382.04,178.38 381.64,178.38 381.23,178.38 380.82,178.38 380.42,178.38 380.01,178.38 379.61,178.38 379.20,178.38 378.79,178.38 378.39,178.38 377.98,178.38 377.57,178.38 377.17,178.38 376.76,178.38 376.35,178.38 375.95,178.38 375.54,178.38 375.13,178.38 374.73,178.38 374.32,178.38 373.91,178.38 373.51,178.38 373.10,178.38 372.70,178.38 372.29,178.38 371.88,178.38 371.48,178.38 371.07,178.38 370.66,178.38 370.26,178.38 369.85,178.38 369.44,178.38 369.04,178.38 368.63,178.38 368.22,178.38 367.82,178.38 367.41,178.38 367.00,178.38 366.60,178.38 366.19,178.38 365.79,178.38 365.38,178.38 364.97,178.38 364.57,178.38 364.16,178.38 363.75,178.38 363.35,178.38 362.94,178.38 362.53,178.38 362.13,178.38 361.72,178.38 361.31,178.38 360.91,178.38 360.50,178.38 360.09,178.38 359.69,178.38 359.28,178.38 358.87,178.38 358.47,178.38 358.06,178.38 357.66,178.38 357.25,178.38 356.84,178.38 356.44,178.38 356.03,178.38 355.62,178.38 355.22,178.38 354.81,178.38 354.40,178.38 354.00,178.38 353.59,178.38 353.18,178.38 352.78,178.38 352.37,178.38 351.96,178.38 351.56,178.38 351.15,178.38 350.75,178.38 350.34,178.38 349.93,178.38 349.53,178.38 349.12,178.38 348.71,178.38 348.31,178.38 347.90,178.38 347.49,178.38 347.09,178.38 346.68,178.38 346.27,178.38 345.87,178.38 345.46,178.38 345.05,178.38 344.65,178.38 344.24,178.38 343.84,178.38 343.43,178.38 343.02,178.38 342.62,178.38 342.21,178.38 341.80,178.38 341.40,178.38 340.99,178.38 340.58,178.38 340.18,178.38 339.77,178.38 339.36,178.38 338.96,178.38 338.55,178.38 338.14,178.38 337.74,178.38 337.33,178.38 336.93,178.38 336.52,178.38 336.11,178.38 335.71,178.38 335.30,178.38 334.89,178.38 334.49,178.38 334.08,178.38 333.67,178.38 333.27,178.38 332.86,178.38 332.45,178.38 332.05,178.38 331.64,178.38 331.23,178.38 330.83,178.38 330.42,178.38 330.01,178.38 329.61,178.38 329.20,178.38 328.80,178.38 328.39,178.38 327.98,178.38 327.58,178.38 327.17,178.38 326.76,178.38 326.36,178.38 325.95,178.38 325.54,178.38 325.14,178.38 324.73,178.38 324.32,178.38 323.92,178.38 323.51,178.38 323.10,178.38 322.70,178.38 322.29,178.38 321.89,178.38 321.48,178.38 321.07,178.38 320.67,178.38 320.26,178.38 319.85,178.38 319.45,178.38 319.04,178.38 318.63,178.38 318.23,178.38 317.82,178.38 317.41,178.38 317.01,178.38 316.60,178.38 316.19,178.38 315.79,178.38 315.38,178.38 314.98,178.38 314.57,178.38 314.16,178.38 313.76,178.38 313.35,178.38 312.94,178.38 312.54,178.38 312.13,178.38 311.72,178.38 311.32,178.38 310.91,178.38 310.50,178.38 310.10,178.38 309.69,178.38 309.28,178.38 308.88,178.38 308.47,178.38 308.07,178.38 307.66,178.38 307.25,178.38 306.85,178.38 306.44,178.38 306.03,178.38 305.63,178.38 305.22,178.38 304.81,178.38 304.41,178.38 304.00,178.38 303.59,178.38 303.19,178.38 302.78,178.38 302.37,178.38 301.97,178.38 301.56,178.38 301.15,178.38 300.75,178.38 300.34,178.38 299.94,178.38 299.53,178.38 299.12,178.38 298.72,178.38 298.31,178.38 297.90,178.38 297.50,178.38 297.09,178.38 296.68,178.38 296.28,178.38 295.87,178.38 295.46,178.38 295.06,178.38 294.65,178.38 294.24,178.38 293.84,178.38 293.43,178.38 293.03,178.38 292.62,178.38 292.21,178.38 291.81,178.38 291.40,178.38 290.99,178.38 290.59,178.38 290.18,178.38 289.77,178.38 289.37,178.38 288.96,178.38 288.55,178.38 288.15,178.38 287.74,178.38 287.33,178.38 286.93,178.38 286.52,178.38 286.12,178.38 285.71,178.38 285.30,178.38 284.90,178.38 284.49,178.38 284.08,178.38 283.68,178.38 283.27,178.38 282.86,178.38 282.46,178.38 282.05,178.38 281.64,178.38 281.24,178.38 280.83,178.38 280.42,178.38 "
     style="stroke-width: 1.07; fill: #FF0000; fill-opacity: 0.20;"
     clip-path="url(#cpMjcwLjA0fDQ5OC41MnwxODUuODB8MjIuNzQ=)"
     id="polygon4719" />
  <polygon
     points="280.42,162.72 280.83,161.96 281.24,161.17 281.64,160.36 282.05,159.52 282.46,158.66 282.86,157.77 283.27,156.85 283.68,155.91 284.08,154.95 284.49,153.96 284.90,152.94 285.30,151.91 285.71,150.84 286.12,149.75 286.52,148.65 286.93,147.52 287.33,146.37 287.74,145.20 288.15,144.01 288.55,142.80 288.96,141.58 289.37,140.34 289.77,139.09 290.18,137.83 290.59,136.55 290.99,135.27 291.40,133.98 291.81,132.68 292.21,131.39 292.62,130.09 293.03,128.79 293.43,127.50 293.84,126.21 294.24,124.93 294.65,123.66 295.06,122.40 295.46,121.16 295.87,119.93 296.28,118.72 296.68,117.54 297.09,116.37 297.50,115.23 297.90,114.12 298.31,113.03 298.72,111.97 299.12,110.95 299.53,109.96 299.94,109.01 300.34,108.08 300.75,107.20 301.15,106.36 301.56,105.55 301.97,104.77 302.37,104.04 302.78,103.35 303.19,102.69 303.59,102.08 304.00,101.51 304.41,100.97 304.81,100.46 305.22,100.00 305.63,99.57 306.03,99.18 306.44,98.81 306.85,98.49 307.25,98.19 307.66,97.92 308.07,97.68 308.47,97.47 308.88,97.28 309.28,97.11 309.69,96.97 310.10,96.84 310.50,96.74 310.91,96.65 311.32,96.57 311.72,96.52 312.13,96.47 312.54,96.43 312.94,96.41 313.35,96.39 313.76,96.38 314.16,96.37 314.57,96.37 314.98,96.38 315.38,96.39 315.79,96.40 316.19,96.41 316.60,96.43 317.01,96.44 317.41,96.46 317.82,96.48 318.23,96.50 318.63,96.51 319.04,96.53 319.45,96.54 319.85,96.56 320.26,96.57 320.67,96.58 321.07,96.60 321.48,96.61 321.89,96.62 322.29,96.63 322.70,96.64 323.10,96.64 323.51,96.65 323.92,96.66 324.32,96.67 324.73,96.68 325.14,96.69 325.54,96.69 325.95,96.70 326.36,96.71 326.76,96.72 327.17,96.73 327.58,96.75 327.98,96.76 328.39,96.77 328.80,96.79 329.20,96.80 329.61,96.82 330.01,96.84 330.42,96.86 330.83,96.89 331.23,96.91 331.64,96.94 332.05,96.97 332.45,97.00 332.86,97.04 333.27,97.08 333.67,97.12 334.08,97.17 334.49,97.22 334.89,97.27 335.30,97.33 335.71,97.39 336.11,97.46 336.52,97.53 336.93,97.61 337.33,97.70 337.74,97.79 338.14,97.88 338.55,97.99 338.96,98.10 339.36,98.21 339.77,98.34 340.18,98.48 340.58,98.62 340.99,98.77 341.40,98.94 341.80,99.11 342.21,99.29 342.62,99.49 343.02,99.70 343.43,99.93 343.84,100.16 344.24,100.42 344.65,100.68 345.05,100.97 345.46,101.26 345.87,101.58 346.27,101.92 346.68,102.27 347.09,102.64 347.49,103.04 347.90,103.45 348.31,103.88 348.71,104.34 349.12,104.82 349.53,105.32 349.93,105.84 350.34,106.39 350.75,106.95 351.15,107.54 351.56,108.15 351.96,108.79 352.37,109.45 352.78,110.12 353.18,110.83 353.59,111.55 354.00,112.29 354.40,113.05 354.81,113.83 355.22,114.62 355.62,115.44 356.03,116.26 356.44,117.11 356.84,117.97 357.25,118.83 357.66,119.71 358.06,120.60 358.47,121.50 358.87,122.41 359.28,123.32 359.69,124.23 360.09,125.15 360.50,126.07 360.91,126.99 361.31,127.91 361.72,128.82 362.13,129.74 362.53,130.64 362.94,131.55 363.35,132.45 363.75,133.33 364.16,134.21 364.57,135.09 364.97,135.95 365.38,136.80 365.79,137.64 366.19,138.47 366.60,139.28 367.00,140.08 367.41,140.87 367.82,141.64 368.22,142.40 368.63,143.14 369.04,143.87 369.44,144.58 369.85,145.28 370.26,145.96 370.66,146.63 371.07,147.28 371.48,147.92 371.88,148.54 372.29,149.15 372.70,149.73 373.10,150.31 373.51,150.87 373.91,151.41 374.32,151.94 374.73,152.45 375.13,152.95 375.54,153.44 375.95,153.91 376.35,154.37 376.76,154.81 377.17,155.24 377.57,155.66 377.98,156.06 378.39,156.46 378.79,156.83 379.20,157.20 379.61,157.56 380.01,157.91 380.42,158.25 380.82,158.58 381.23,158.90 381.64,159.21 382.04,159.51 382.45,159.80 382.86,160.09 383.26,160.37 383.67,160.65 384.08,160.91 384.48,161.18 384.89,161.44 385.30,161.69 385.70,161.94 386.11,162.18 386.52,162.43 386.92,162.67 387.33,162.90 387.73,163.14 388.14,163.37 388.55,163.60 388.95,163.83 389.36,164.05 389.77,164.28 390.17,164.50 390.58,164.73 390.99,164.95 391.39,165.17 391.80,165.39 392.21,165.61 392.61,165.83 393.02,166.05 393.43,166.26 393.83,166.48 394.24,166.69 394.64,166.91 395.05,167.12 395.46,167.33 395.86,167.55 396.27,167.76 396.68,167.96 397.08,168.17 397.49,168.38 397.90,168.58 398.30,168.79 398.71,168.99 399.12,169.19 399.52,169.39 399.93,169.59 400.34,169.79 400.74,169.98 401.15,170.18 401.56,170.37 401.96,170.57 402.37,170.76 402.77,170.95 403.18,171.14 403.59,171.32 403.99,171.51 404.40,171.69 404.81,171.88 405.21,172.06 405.62,172.24 406.03,172.42 406.43,172.60 406.84,172.78 407.25,172.96 407.65,173.13 408.06,173.30 408.47,173.48 408.87,173.65 409.28,173.81 409.68,173.98 410.09,174.14 410.50,174.31 410.90,174.47 411.31,174.62 411.72,174.78 412.12,174.93 412.53,175.08 412.94,175.23 413.34,175.37 413.75,175.51 414.16,175.65 414.56,175.78 414.97,175.91 415.38,176.04 415.78,176.16 416.19,176.28 416.59,176.40 417.00,176.51 417.41,176.62 417.81,176.72 418.22,176.82 418.63,176.92 419.03,177.01 419.44,177.09 419.85,177.18 420.25,177.26 420.66,177.34 421.07,177.41 421.47,177.48 421.88,177.54 422.29,177.61 422.69,177.66 423.10,177.72 423.50,177.77 423.91,177.82 424.32,177.87 424.72,177.91 425.13,177.95 425.54,177.98 425.94,178.02 426.35,178.05 426.76,178.08 427.16,178.11 427.57,178.13 427.98,178.16 428.38,178.18 428.79,178.20 429.20,178.22 429.60,178.23 430.01,178.25 430.42,178.26 430.82,178.28 431.23,178.29 431.63,178.30 432.04,178.31 432.45,178.32 432.85,178.32 433.26,178.33 433.67,178.34 434.07,178.34 434.48,178.35 434.89,178.35 435.29,178.36 435.70,178.36 436.11,178.36 436.51,178.36 436.92,178.37 437.33,178.37 437.73,178.37 438.14,178.37 438.54,178.37 438.95,178.38 439.36,178.38 439.76,178.38 440.17,178.38 440.58,178.38 440.98,178.38 441.39,178.38 441.80,178.38 442.20,178.38 442.61,178.38 443.02,178.38 443.42,178.38 443.83,178.38 444.24,178.38 444.64,178.38 445.05,178.38 445.45,178.38 445.86,178.38 446.27,178.38 446.67,178.38 447.08,178.38 447.49,178.38 447.89,178.38 448.30,178.38 448.71,178.38 449.11,178.38 449.52,178.38 449.93,178.38 450.33,178.38 450.74,178.38 451.15,178.38 451.55,178.38 451.96,178.38 452.36,178.38 452.77,178.38 453.18,178.38 453.58,178.38 453.99,178.38 454.40,178.38 454.80,178.38 455.21,178.38 455.62,178.38 456.02,178.38 456.43,178.38 456.84,178.38 457.24,178.38 457.65,178.38 458.06,178.38 458.46,178.38 458.87,178.38 459.28,178.38 459.68,178.38 460.09,178.38 460.49,178.38 460.90,178.38 461.31,178.38 461.71,178.38 462.12,178.38 462.53,178.38 462.93,178.38 463.34,178.38 463.75,178.38 464.15,178.38 464.56,178.38 464.97,178.38 465.37,178.38 465.78,178.38 466.19,178.38 466.59,178.38 467.00,178.38 467.40,178.38 467.81,178.38 468.22,178.38 468.62,178.38 469.03,178.38 469.44,178.38 469.84,178.38 470.25,178.38 470.66,178.38 471.06,178.38 471.47,178.38 471.88,178.38 472.28,178.38 472.69,178.38 473.10,178.38 473.50,178.38 473.91,178.38 474.31,178.38 474.72,178.38 475.13,178.38 475.53,178.38 475.94,178.38 476.35,178.38 476.75,178.38 477.16,178.38 477.57,178.38 477.97,178.38 478.38,178.38 478.79,178.38 479.19,178.38 479.60,178.38 480.01,178.38 480.41,178.38 480.82,178.38 481.22,178.38 481.63,178.38 482.04,178.38 482.44,178.38 482.85,178.38 483.26,178.38 483.66,178.38 484.07,178.38 484.48,178.38 484.88,178.38 485.29,178.38 485.70,178.38 486.10,178.38 486.51,178.38 486.92,178.38 487.32,178.38 487.73,178.38 488.14,178.38 488.14,178.38 487.73,178.38 487.32,178.38 486.92,178.38 486.51,178.38 486.10,178.38 485.70,178.38 485.29,178.38 484.88,178.38 484.48,178.38 484.07,178.38 483.66,178.38 483.26,178.38 482.85,178.38 482.44,178.38 482.04,178.38 481.63,178.38 481.22,178.38 480.82,178.38 480.41,178.38 480.01,178.38 479.60,178.38 479.19,178.38 478.79,178.38 478.38,178.38 477.97,178.38 477.57,178.38 477.16,178.38 476.75,178.38 476.35,178.38 475.94,178.38 475.53,178.38 475.13,178.38 474.72,178.38 474.31,178.38 473.91,178.38 473.50,178.38 473.10,178.38 472.69,178.38 472.28,178.38 471.88,178.38 471.47,178.38 471.06,178.38 470.66,178.38 470.25,178.38 469.84,178.38 469.44,178.38 469.03,178.38 468.62,178.38 468.22,178.38 467.81,178.38 467.40,178.38 467.00,178.38 466.59,178.38 466.19,178.38 465.78,178.38 465.37,178.38 464.97,178.38 464.56,178.38 464.15,178.38 463.75,178.38 463.34,178.38 462.93,178.38 462.53,178.38 462.12,178.38 461.71,178.38 461.31,178.38 460.90,178.38 460.49,178.38 460.09,178.38 459.68,178.38 459.28,178.38 458.87,178.38 458.46,178.38 458.06,178.38 457.65,178.38 457.24,178.38 456.84,178.38 456.43,178.38 456.02,178.38 455.62,178.38 455.21,178.38 454.80,178.38 454.40,178.38 453.99,178.38 453.58,178.38 453.18,178.38 452.77,178.38 452.36,178.38 451.96,178.38 451.55,178.38 451.15,178.38 450.74,178.38 450.33,178.38 449.93,178.38 449.52,178.38 449.11,178.38 448.71,178.38 448.30,178.38 447.89,178.38 447.49,178.38 447.08,178.38 446.67,178.38 446.27,178.38 445.86,178.38 445.45,178.38 445.05,178.38 444.64,178.38 444.24,178.38 443.83,178.38 443.42,178.38 443.02,178.38 442.61,178.38 442.20,178.38 441.80,178.38 441.39,178.38 440.98,178.38 440.58,178.38 440.17,178.38 439.76,178.38 439.36,178.38 438.95,178.38 438.54,178.38 438.14,178.38 437.73,178.38 437.33,178.38 436.92,178.38 436.51,178.38 436.11,178.38 435.70,178.38 435.29,178.38 434.89,178.38 434.48,178.38 434.07,178.38 433.67,178.38 433.26,178.38 432.85,178.38 432.45,178.38 432.04,178.38 431.63,178.38 431.23,178.38 430.82,178.38 430.42,178.38 430.01,178.38 429.60,178.38 429.20,178.38 428.79,178.38 428.38,178.38 427.98,178.38 427.57,178.38 427.16,178.38 426.76,178.38 426.35,178.38 425.94,178.38 425.54,178.38 425.13,178.38 424.72,178.38 424.32,178.38 423.91,178.38 423.50,178.38 423.10,178.38 422.69,178.38 422.29,178.38 421.88,178.38 421.47,178.38 421.07,178.38 420.66,178.38 420.25,178.38 419.85,178.38 419.44,178.38 419.03,178.38 418.63,178.38 418.22,178.38 417.81,178.38 417.41,178.38 417.00,178.38 416.59,178.38 416.19,178.38 415.78,178.38 415.38,178.38 414.97,178.38 414.56,178.38 414.16,178.38 413.75,178.38 413.34,178.38 412.94,178.38 412.53,178.38 412.12,178.38 411.72,178.38 411.31,178.38 410.90,178.38 410.50,178.38 410.09,178.38 409.68,178.38 409.28,178.38 408.87,178.38 408.47,178.38 408.06,178.38 407.65,178.38 407.25,178.38 406.84,178.38 406.43,178.38 406.03,178.38 405.62,178.38 405.21,178.38 404.81,178.38 404.40,178.38 403.99,178.38 403.59,178.38 403.18,178.38 402.77,178.38 402.37,178.38 401.96,178.38 401.56,178.38 401.15,178.38 400.74,178.38 400.34,178.38 399.93,178.38 399.52,178.38 399.12,178.38 398.71,178.38 398.30,178.38 397.90,178.38 397.49,178.38 397.08,178.38 396.68,178.38 396.27,178.38 395.86,178.38 395.46,178.38 395.05,178.38 394.64,178.38 394.24,178.38 393.83,178.38 393.43,178.38 393.02,178.38 392.61,178.38 392.21,178.38 391.80,178.38 391.39,178.38 390.99,178.38 390.58,178.38 390.17,178.38 389.77,178.38 389.36,178.38 388.95,178.38 388.55,178.38 388.14,178.38 387.73,178.38 387.33,178.38 386.92,178.38 386.52,178.38 386.11,178.38 385.70,178.38 385.30,178.38 384.89,178.38 384.48,178.38 384.08,178.38 383.67,178.38 383.26,178.38 382.86,178.38 382.45,178.38 382.04,178.38 381.64,178.38 381.23,178.38 380.82,178.38 380.42,178.38 380.01,178.38 379.61,178.38 379.20,178.38 378.79,178.38 378.39,178.38 377.98,178.38 377.57,178.38 377.17,178.38 376.76,178.38 376.35,178.38 375.95,178.38 375.54,178.38 375.13,178.38 374.73,178.38 374.32,178.38 373.91,178.38 373.51,178.38 373.10,178.38 372.70,178.38 372.29,178.38 371.88,178.38 371.48,178.38 371.07,178.38 370.66,178.38 370.26,178.38 369.85,178.38 369.44,178.38 369.04,178.38 368.63,178.38 368.22,178.38 367.82,178.38 367.41,178.38 367.00,178.38 366.60,178.38 366.19,178.38 365.79,178.38 365.38,178.38 364.97,178.38 364.57,178.38 364.16,178.38 363.75,178.38 363.35,178.38 362.94,178.38 362.53,178.38 362.13,178.38 361.72,178.38 361.31,178.38 360.91,178.38 360.50,178.38 360.09,178.38 359.69,178.38 359.28,178.38 358.87,178.38 358.47,178.38 358.06,178.38 357.66,178.38 357.25,178.38 356.84,178.38 356.44,178.38 356.03,178.38 355.62,178.38 355.22,178.38 354.81,178.38 354.40,178.38 354.00,178.38 353.59,178.38 353.18,178.38 352.78,178.38 352.37,178.38 351.96,178.38 351.56,178.38 351.15,178.38 350.75,178.38 350.34,178.38 349.93,178.38 349.53,178.38 349.12,178.38 348.71,178.38 348.31,178.38 347.90,178.38 347.49,178.38 347.09,178.38 346.68,178.38 346.27,178.38 345.87,178.38 345.46,178.38 345.05,178.38 344.65,178.38 344.24,178.38 343.84,178.38 343.43,178.38 343.02,178.38 342.62,178.38 342.21,178.38 341.80,178.38 341.40,178.38 340.99,178.38 340.58,178.38 340.18,178.38 339.77,178.38 339.36,178.38 338.96,178.38 338.55,178.38 338.14,178.38 337.74,178.38 337.33,178.38 336.93,178.38 336.52,178.38 336.11,178.38 335.71,178.38 335.30,178.38 334.89,178.38 334.49,178.38 334.08,178.38 333.67,178.38 333.27,178.38 332.86,178.38 332.45,178.38 332.05,178.38 331.64,178.38 331.23,178.38 330.83,178.38 330.42,178.38 330.01,178.38 329.61,178.38 329.20,178.38 328.80,178.38 328.39,178.38 327.98,178.38 327.58,178.38 327.17,178.38 326.76,178.38 326.36,178.38 325.95,178.38 325.54,178.38 325.14,178.38 324.73,178.38 324.32,178.38 323.92,178.38 323.51,178.38 323.10,178.38 322.70,178.38 322.29,178.38 321.89,178.38 321.48,178.38 321.07,178.38 320.67,178.38 320.26,178.38 319.85,178.38 319.45,178.38 319.04,178.38 318.63,178.38 318.23,178.38 317.82,178.38 317.41,178.38 317.01,178.38 316.60,178.38 316.19,178.38 315.79,178.38 315.38,178.38 314.98,178.38 314.57,178.38 314.16,178.38 313.76,178.38 313.35,178.38 312.94,178.38 312.54,178.38 312.13,178.38 311.72,178.38 311.32,178.38 310.91,178.38 310.50,178.38 310.10,178.38 309.69,178.38 309.28,178.38 308.88,178.38 308.47,178.38 308.07,178.38 307.66,178.38 307.25,178.38 306.85,178.38 306.44,178.38 306.03,178.38 305.63,178.38 305.22,178.38 304.81,178.38 304.41,178.38 304.00,178.38 303.59,178.38 303.19,178.38 302.78,178.38 302.37,178.38 301.97,178.38 301.56,178.38 301.15,178.38 300.75,178.38 300.34,178.38 299.94,178.38 299.53,178.38 299.12,178.38 298.72,178.38 298.31,178.38 297.90,178.38 297.50,178.38 297.09,178.38 296.68,178.38 296.28,178.38 295.87,178.38 295.46,178.38 295.06,178.38 294.65,178.38 294.24,178.38 293.84,178.38 293.43,178.38 293.03,178.38 292.62,178.38 292.21,178.38 291.81,178.38 291.40,178.38 290.99,178.38 290.59,178.38 290.18,178.38 289.77,178.38 289.37,178.38 288.96,178.38 288.55,178.38 288.15,178.38 287.74,178.38 287.33,178.38 286.93,178.38 286.52,178.38 286.12,178.38 285.71,178.38 285.30,178.38 284.90,178.38 284.49,178.38 284.08,178.38 283.68,178.38 283.27,178.38 282.86,178.38 282.46,178.38 282.05,178.38 281.64,178.38 281.24,178.38 280.83,178.38 280.42,178.38 "
     style="stroke-width: 1.07; fill: #000000; fill-opacity: 0.20;"
     clip-path="url(#cpMjcwLjA0fDQ5OC41MnwxODUuODB8MjIuNzQ=)"
     id="polygon4721" />
  <rect
     x="270.04"
     y="22.74"
     width="228.48"
     height="163.06"
     style="stroke-width: 1.07; stroke: #333333;"
     clip-path="url(#cpMjcwLjA0fDQ5OC41MnwxODUuODB8MjIuNzQ=)"
     id="rect4723" />
  <defs
     id="defs4725">
    <clipPath
       id="clipPath4727">
      <rect
         x="0.00"
         y="0.00"
         width="504.00"
         height="216.00"
         id="rect4729" />
    </clipPath>
  </defs>
  <defs
     id="defs4731">
    <clipPath
       id="cpMzYuMDh8MjY0LjU2fDIyLjc0fDUuNDg=">
      <rect
         x="36.08"
         y="5.48"
         width="228.48"
         height="17.26"
         id="rect4734" />
    </clipPath>
  </defs>
  <rect
     x="36.08"
     y="5.48"
     width="228.48"
     height="17.26"
     style="stroke-width: 1.07; stroke: #333333; fill: #D9D9D9;"
     clip-path="url(#cpMzYuMDh8MjY0LjU2fDIyLjc0fDUuNDg=)"
     id="rect4736" />
  <g
     clip-path="url(#cpMzYuMDh8MjY0LjU2fDIyLjc0fDUuNDg=)"
     id="g4738"
     transform="translate(0.00663828,0)">
    <text
       x="125.37"
       y="17.26"
       style="font-size:8.80000019px;font-family:Arial;fill:#1a1a1a"
       textLength="49.90px"
       lengthAdjust="spacingAndGlyphs"
       id="text4740">Connectance</text>
  </g>
  <defs
     id="defs4742">
    <clipPath
       id="clipPath4744">
      <rect
         x="0.00"
         y="0.00"
         width="504.00"
         height="216.00"
         id="rect4746" />
    </clipPath>
  </defs>
  <defs
     id="defs4748">
    <clipPath
       id="cpMjcwLjA0fDQ5OC41MnwyMi43NHw1LjQ4">
      <rect
         x="270.04"
         y="5.48"
         width="228.48"
         height="17.26"
         id="rect4751" />
    </clipPath>
  </defs>
  <rect
     x="270.04"
     y="5.48"
     width="228.48"
     height="17.26"
     style="stroke-width: 1.07; stroke: #333333; fill: #D9D9D9;"
     clip-path="url(#cpMjcwLjA0fDQ5OC41MnwyMi43NHw1LjQ4)"
     id="rect4753" />
  <g
     clip-path="url(#cpMjcwLjA0fDQ5OC41MnwyMi43NHw1LjQ4)"
     id="g4755"
     transform="translate(-7.6894517,0)">
    <text
       x="363.9259"
       y="17.26"
       style="font-size:8.80000019px;font-family:Arial;fill:#1a1a1a"
       textLength="64.58px"
       lengthAdjust="spacingAndGlyphs"
       id="text4757">Niche Overlap</text>
  </g>
  <defs
     id="defs4759">
    <clipPath
       id="clipPath4761">
      <rect
         x="0.00"
         y="0.00"
         width="504.00"
         height="216.00"
         id="rect4763" />
    </clipPath>
  </defs>
  <polyline
     points="76.43,188.54 76.43,185.80 "
     style="stroke-width: 1.07; stroke: #333333; stroke-linecap: butt;"
     clip-path="url(#cpMC4wMHw1MDQuMDB8MjE2LjAwfDAuMDA=)"
     id="polyline4765" />
  <polyline
     points="135.68,188.54 135.68,185.80 "
     style="stroke-width: 1.07; stroke: #333333; stroke-linecap: butt;"
     clip-path="url(#cpMC4wMHw1MDQuMDB8MjE2LjAwfDAuMDA=)"
     id="polyline4767" />
  <polyline
     points="194.93,188.54 194.93,185.80 "
     style="stroke-width: 1.07; stroke: #333333; stroke-linecap: butt;"
     clip-path="url(#cpMC4wMHw1MDQuMDB8MjE2LjAwfDAuMDA=)"
     id="polyline4769" />
  <polyline
     points="254.17,188.54 254.17,185.80 "
     style="stroke-width: 1.07; stroke: #333333; stroke-linecap: butt;"
     clip-path="url(#cpMC4wMHw1MDQuMDB8MjE2LjAwfDAuMDA=)"
     id="polyline4771" />
  <g
     clip-path="url(#cpMC4wMHw1MDQuMDB8MjE2LjAwfDAuMDA=)"
     id="g4773">
    <text
       x="67.87"
       y="197.03"
       style="font-size: 8.80px; fill: #4D4D4D; font-family: Arial;"
       textLength="17.13px"
       lengthAdjust="spacingAndGlyphs"
       id="text4775">0.30</text>
  </g>
  <g
     clip-path="url(#cpMC4wMHw1MDQuMDB8MjE2LjAwfDAuMDA=)"
     id="g4777">
    <text
       x="127.11"
       y="197.03"
       style="font-size: 8.80px; fill: #4D4D4D; font-family: Arial;"
       textLength="17.13px"
       lengthAdjust="spacingAndGlyphs"
       id="text4779">0.35</text>
  </g>
  <g
     clip-path="url(#cpMC4wMHw1MDQuMDB8MjE2LjAwfDAuMDA=)"
     id="g4781">
    <text
       x="186.36"
       y="197.03"
       style="font-size: 8.80px; fill: #4D4D4D; font-family: Arial;"
       textLength="17.13px"
       lengthAdjust="spacingAndGlyphs"
       id="text4783">0.40</text>
  </g>
  <g
     clip-path="url(#cpMC4wMHw1MDQuMDB8MjE2LjAwfDAuMDA=)"
     id="g4785">
    <text
       x="245.61"
       y="197.03"
       style="font-size: 8.80px; fill: #4D4D4D; font-family: Arial;"
       textLength="17.13px"
       lengthAdjust="spacingAndGlyphs"
       id="text4787">0.45</text>
  </g>
  <polyline
     points="310.39,188.54 310.39,185.80 "
     style="stroke-width: 1.07; stroke: #333333; stroke-linecap: butt;"
     clip-path="url(#cpMC4wMHw1MDQuMDB8MjE2LjAwfDAuMDA=)"
     id="polyline4789" />
  <polyline
     points="369.64,188.54 369.64,185.80 "
     style="stroke-width: 1.07; stroke: #333333; stroke-linecap: butt;"
     clip-path="url(#cpMC4wMHw1MDQuMDB8MjE2LjAwfDAuMDA=)"
     id="polyline4791" />
  <polyline
     points="428.89,188.54 428.89,185.80 "
     style="stroke-width: 1.07; stroke: #333333; stroke-linecap: butt;"
     clip-path="url(#cpMC4wMHw1MDQuMDB8MjE2LjAwfDAuMDA=)"
     id="polyline4793" />
  <polyline
     points="488.14,188.54 488.14,185.80 "
     style="stroke-width: 1.07; stroke: #333333; stroke-linecap: butt;"
     clip-path="url(#cpMC4wMHw1MDQuMDB8MjE2LjAwfDAuMDA=)"
     id="polyline4795" />
  <g
     clip-path="url(#cpMC4wMHw1MDQuMDB8MjE2LjAwfDAuMDA=)"
     id="g4797">
    <text
       x="301.83"
       y="197.03"
       style="font-size: 8.80px; fill: #4D4D4D; font-family: Arial;"
       textLength="17.13px"
       lengthAdjust="spacingAndGlyphs"
       id="text4799">0.30</text>
  </g>
  <g
     clip-path="url(#cpMC4wMHw1MDQuMDB8MjE2LjAwfDAuMDA=)"
     id="g4801">
    <text
       x="361.08"
       y="197.03"
       style="font-size: 8.80px; fill: #4D4D4D; font-family: Arial;"
       textLength="17.13px"
       lengthAdjust="spacingAndGlyphs"
       id="text4803">0.35</text>
  </g>
  <g
     clip-path="url(#cpMC4wMHw1MDQuMDB8MjE2LjAwfDAuMDA=)"
     id="g4805">
    <text
       x="420.32"
       y="197.03"
       style="font-size: 8.80px; fill: #4D4D4D; font-family: Arial;"
       textLength="17.13px"
       lengthAdjust="spacingAndGlyphs"
       id="text4807">0.40</text>
  </g>
  <g
     clip-path="url(#cpMC4wMHw1MDQuMDB8MjE2LjAwfDAuMDA=)"
     id="g4809">
    <text
       x="479.57"
       y="197.03"
       style="font-size: 8.80px; fill: #4D4D4D; font-family: Arial;"
       textLength="17.13px"
       lengthAdjust="spacingAndGlyphs"
       id="text4811">0.45</text>
  </g>
  <g
     clip-path="url(#cpMC4wMHw1MDQuMDB8MjE2LjAwfDAuMDA=)"
     id="g4813">
    <text
       x="26.25"
       y="181.53"
       style="font-size: 8.80px; fill: #4D4D4D; font-family: Arial;"
       textLength="4.89px"
       lengthAdjust="spacingAndGlyphs"
       id="text4815">0</text>
  </g>
  <g
     clip-path="url(#cpMC4wMHw1MDQuMDB8MjE2LjAwfDAuMDA=)"
     id="g4817">
    <text
       x="21.36"
       y="125.82"
       style="font-size: 8.80px; fill: #4D4D4D; font-family: Arial;"
       textLength="9.79px"
       lengthAdjust="spacingAndGlyphs"
       id="text4819">10</text>
  </g>
  <g
     clip-path="url(#cpMC4wMHw1MDQuMDB8MjE2LjAwfDAuMDA=)"
     id="g4821">
    <text
       x="21.36"
       y="70.11"
       style="font-size: 8.80px; fill: #4D4D4D; font-family: Arial;"
       textLength="9.79px"
       lengthAdjust="spacingAndGlyphs"
       id="text4823">20</text>
  </g>
  <polyline
     points="33.34,178.38 36.08,178.38 "
     style="stroke-width: 1.07; stroke: #333333; stroke-linecap: butt;"
     clip-path="url(#cpMC4wMHw1MDQuMDB8MjE2LjAwfDAuMDA=)"
     id="polyline4825" />
  <polyline
     points="33.34,122.67 36.08,122.67 "
     style="stroke-width: 1.07; stroke: #333333; stroke-linecap: butt;"
     clip-path="url(#cpMC4wMHw1MDQuMDB8MjE2LjAwfDAuMDA=)"
     id="polyline4827" />
  <polyline
     points="33.34,66.96 36.08,66.96 "
     style="stroke-width: 1.07; stroke: #333333; stroke-linecap: butt;"
     clip-path="url(#cpMC4wMHw1MDQuMDB8MjE2LjAwfDAuMDA=)"
     id="polyline4829" />
  <g
     clip-path="url(#cpMC4wMHw1MDQuMDB8MjE2LjAwfDAuMDA=)"
     id="g4831">
    <text
       x="254.15"
       y="210.38"
       style="font-size: 11.00px; font-family: Arial;"
       textLength="26.30px"
       lengthAdjust="spacingAndGlyphs"
       id="text4833">value</text>
  </g>
  <g
     clip-path="url(#cpMC4wMHw1MDQuMDB8MjE2LjAwfDAuMDA=)"
     id="g4835">
    <text
       transform="translate(13.35,121.69) rotate(-90)"
       style="font-size: 11.00px; font-family: Arial;"
       textLength="34.85px"
       lengthAdjust="spacingAndGlyphs"
       id="text4837">density</text>
  </g>
</svg>
